<?xml version="1.0" encoding="utf-8"?>
<!-- Generator: Adobe Illustrator 16.0.4, SVG Export Plug-In . SVG Version: 6.00 Build 0)  -->
<!DOCTYPE svg PUBLIC "-//W3C//DTD SVG 1.1//EN" "http://www.w3.org/Graphics/SVG/1.1/DTD/svg11.dtd">
<svg version="1.1" id="artboard" xmlns="http://www.w3.org/2000/svg" xmlns:xlink="http://www.w3.org/1999/xlink" x="0px" y="0px"
	 width="480px" height="640px" viewBox="0 0 480 640" enable-background="new 0 0 480 640" xml:space="preserve">
<g id="wapuu">
	<path id="silhouette" d="M217.6,412.8c-14.7,0-28.4-7.399-35.5-14.7c-4.2-4.3-6.4-8.8-6.2-12.899c0.2-7.601,5.3-12.7,12.5-12.7
		c6.9,0,13.9,4.5,18.2,11.9c3.3,5.5,9.4,6.699,14,6.699l0,0c10.8,0,25.5-6.6,35.7-18c-3.2,0.5-6,0.601-8.2,0.601
		c-0.3,0-0.6,0-0.899,0c-3.3,4-7.8,6.1-13.1,6.1c-3.5,0-9.1-1.1-11.2-8c-9.7-1-18.8-4.3-26.7-9.8c-0.2,0.8-0.6,1.6-1.1,2.4
		c-1.5,2.399-4.1,3.699-7.2,3.699c-1,0-2.1-0.1-3.2-0.399c-11.6-2.8-26-18.9-28-28.5c-1-4.7,0-9.101,2.6-12.4c2.4-3,6.1-4.7,10-4.7
		c0.8,0,1.6,0.101,2.4,0.2c-0.3-2.6-0.5-5.1-0.5-7.7c0-8.8,1.4-17.899,5.2-25.8c-0.7-0.8-1.5-4.6,0.4-8.5c1.9-3.9,4.8-5.9,6.7-6.8
		c-4.3-1.5-6.1-3.9-6.3-6.2c-0.3-3.1,1.7-5.8,4.8-6.5c1.9-0.4,8.8-4.3,12.5-7.8c10.9-16.9,31-26.7,53.6-26
		c10.5,0.3,19.9,3.5,28.101,9.5c5.1,0.3,12.3,0.3,17.5,0.3c3.2,0,6.399,0,9.399,0c2.7,0,5.2,0,7.4,0c6.8,0,8.5,0.1,9.6,0.4
		c2.5,0.6,4.101,2.8,4.2,5.6c0.101,5.3-5.7,14.9-18.7,18.7c-2.1,0.6-4.3,0.9-6.6,0.9c-1,0-2-0.1-3-0.2c0.7,1.5,1.3,3.1,1.9,4.7
		c8.199,23.3,10.199,75.5-14.7,94.6c-6.8,23-30.101,43.8-56.2,50C224,412.5,220.8,412.8,217.6,412.8"/>
	<g id="tail">
		<path fill="#FF8800" d="M279.335,359.036c-5.667,21.667-28,42.333-53.334,48.333c-21.793,5.161-46-11.666-45.666-22
			c0.375-11.637,15-11,22.333,1.334c11.234,18.895,49.667,5.666,64-20.667L279.335,359.036z"/>
		<path d="M217.676,409.815c-11.666,0-23.107-4.995-30.363-10.927c-5.52-4.513-8.61-9.458-8.477-13.568
			c0.159-4.938,2.645-8.387,6.82-9.461c5.302-1.369,13.294,1.655,18.301,10.076c4.123,6.934,11.615,8.277,17.141,8.157
			c16.47-0.312,35.494-12.684,44.253-28.773c0.396-0.729,1.308-0.997,2.033-0.602c0.729,0.396,0.997,1.308,0.602,2.034
			c-9.233,16.965-29.367,30.009-46.831,30.34c-9.006,0.148-15.985-3.248-19.776-9.623c-4.253-7.151-10.749-9.794-14.974-8.705
			c-2.833,0.729-4.456,3.093-4.571,6.652c-0.1,3.124,2.657,7.292,7.377,11.15c8.486,6.938,23.048,12.516,36.444,9.342
			c24.628-5.832,46.593-25.705,52.229-47.253c0.21-0.802,1.024-1.281,1.831-1.071c0.802,0.209,1.281,1.029,1.071,1.831
			c-5.9,22.558-28.795,43.339-54.439,49.413C223.483,409.507,220.571,409.815,217.676,409.815"/>
	</g>
	<g id="right-ear">
		<path fill="#FF8800" d="M194.335,268.369c-13,3.666-14.334-2.333-11.334-3s11-5.333,15-9.333L194.335,268.369z"/>
		<path d="M187.095,271.054c-3.393,0-5.089-1.026-5.903-1.851c-0.89-0.9-1.232-2.086-0.913-3.168
			c0.315-1.07,1.211-1.866,2.397-2.131c2.584-0.574,10.321-4.985,14.265-8.929c0.586-0.586,1.535-0.586,2.121,0
			c0.586,0.585,0.586,1.536,0,2.121c-4.132,4.132-12.367,8.988-15.736,9.737c-0.139,0.031-0.183,0.078-0.184,0.078
			c0.015-0.004,0.103,0.162,0.435,0.388c0.625,0.421,3.211,1.64,10.351-0.374c0.796-0.223,1.626,0.238,1.851,1.036
			c0.225,0.798-0.24,1.626-1.037,1.851C191.535,270.718,189.037,271.054,187.095,271.054"/>
	</g>
	<g id="right-foot">
		<path fill="#FFD200" d="M176.335,329.369c-8.139-6.262-17.334-0.666-15.334,9c1.644,7.941,15.068,22.696,24.667,25
			c8.333,2,6.649-6.992,5.333-10C188.668,348.036,180.668,332.703,176.335,329.369"/>
		<path d="M187.847,365.156L187.847,365.156c-0.769,0-1.621-0.11-2.529-0.329c-10.145-2.436-24.03-17.668-25.786-26.154
			c-0.785-3.795-0.064-7.303,2.03-9.875c1.851-2.271,4.649-3.575,7.677-3.575c2.726,0,5.496,1.023,8.011,2.958
			c4.938,3.801,13.317,20.454,15.125,24.587c0.752,1.72,2.245,6.88,0.153,10.078C191.839,363.9,190.467,365.156,187.847,365.156
			 M169.239,328.223c-2.153,0-4.054,0.877-5.35,2.47c-1.514,1.859-2.018,4.479-1.42,7.374c1.529,7.386,14.657,21.711,23.548,23.845
			c0.68,0.163,1.296,0.246,1.83,0.246c1.387,0,1.903-0.543,2.17-0.952c1.084-1.659,0.47-5.268-0.39-7.233
			c-2.462-5.627-10.264-20.379-14.207-23.413C173.434,329.03,171.298,328.223,169.239,328.223"/>
	</g>
	<g id="takoyaki">
		<circle display="none" cx="229.5" cy="314.4" r="58.5"/>
		<path fill="#EF9B2B" d="M226.3,367.6c-28.2-1.199-50.7-24.5-50.7-52.899c0-17.3,8.3-32.7,21.2-42.4c9.1,4.7,16.3-4,22-8.1
			c16.2,4.2,42.4,1.7,60.101,33.7c2.699,4.899,2.699,10.899,2.699,16.8c0,5.3-0.8,10.3-2.199,15.1c-13-4.8-28.5,1.2-33,12.9
			C237.7,358.3,226.3,367.6,226.3,367.6"/>
		<path fill="#683E15" d="M279,298.1c0,0,0-0.1-0.1-0.1c-17.7-32-43.9-29.6-60.101-33.7c-5.7,4.2-12.8,12.8-22,8.1
			c-7.4,5.6-13.3,13-17,21.6c3.1,4.3,10.367,5.333,14.367,0.833c4.9-5.6,17.5-5.1,22,0.6S235.5,301.1,240.5,294.6
			c5-6.5,17.3-6,22.7,1C267.4,300.7,274.3,301.3,279,298.1z"/>
		<g>

				<rect x="203.916" y="280.002" transform="matrix(-0.7072 0.7071 -0.7071 -0.7072 552.7336 336.575)" fill="#18890B" width="5.5" height="5.5"/>

				<rect x="189.913" y="280.004" transform="matrix(-0.7072 0.7071 -0.7071 -0.7072 528.8298 346.4802)" fill="#18890B" width="5.5" height="5.5"/>

				<rect x="217.889" y="279.978" transform="matrix(-0.707 0.7072 -0.7072 -0.707 576.5814 326.5646)" fill="#18890B" width="5.5" height="5.5"/>

				<rect x="211.897" y="269.8" transform="matrix(-0.7356 0.6774 -0.6774 -0.7356 557.1679 327.6459)" fill="#BF1919" width="5.5" height="5.5"/>

				<rect x="225.38" y="269.979" transform="matrix(-0.7356 0.6774 -0.6774 -0.7356 580.6923 318.8231)" fill="#BF1919" width="5.5" height="5.5"/>

				<rect x="197.895" y="269.801" transform="matrix(-0.7356 0.6774 -0.6774 -0.7356 532.8676 337.1328)" fill="#BF1919" width="5.5" height="5.5"/>
		</g>
		<g>
			<path fill="#683E15" d="M231.2,312.2c-4.4-15.5-18.5-25.2-33.3-21.5c-15.5,3.9-21.6,20.8-17.9,35c3.4,12.8,16.3,24.6,32.8,21.399
				C226.4,344.5,235.6,327.5,231.2,312.2z"/>
			<path fill="#FCE5C2" d="M231.2,312.2c-4.4-15.5-18.5-25.2-33.3-21.5c-15.5,3.9-21.6,20.8-17.9,35c3.4,12.8,16.3,24.6,32.8,21.399
				C226.4,344.5,235.6,327.5,231.2,312.2z M181.6,325.2c-1.5-5.5-1.3-11.3,0.5-16.601c0,0,2.5,9.5,4.8,15.7c2.3,6.2,8,17.7,8,17.7
				C188.2,338.5,183.4,332,181.6,325.2z M211.4,344.5c-4.6,0.9-8.9,0.6-12.8-0.8c0,0,0.4-5.5,1.7-13.3c0.6-3.801,1.6-9,1.6-9
				s2.3,5.5,5.4,11.699c2.8,5.5,6.1,10.101,6.1,10.101c0,0.1,0.2,0.5,0.3,0.6C213,344.1,212.2,344.4,211.4,344.5z M218.3,325.3
				l-2.2,10.3c0,0-4.8-9.8-7.6-17.199c-2.8-7.4-3.7-11.101-3.7-11.101c1.4-0.1,3.2-0.5,3.2-0.5c1.3-0.2,1.1-2.2-0.2-2.1
				c0,0-3.9,0.5-6.4,0.5c-2.4,0.1-6.3-0.101-6.3-0.101c-1.3,0-1.4,2.101-0.1,2.101c0,0,0.9,0.1,2.2,0.2l3.6,11c0,0-1,4.3-1.7,7.699
				c-0.7,3.301-1.5,9.601-1.5,9.601s-4.3-9-6.3-15.4c-2-6.399-3.6-12.899-3.6-12.899c1.5-0.101,2.6-0.101,2.6-0.101
				c1.3-0.2,1.1-2.1-0.2-2c0,0-3.1,0.101-5.7,0.2c-0.5,0-0.8-0.6-1.1-0.1l0.1-0.2c2.8-5.4,7.5-9.6,14.2-11.3
				c8.3-2.1,16.4,0.5,22.3,6.1c-0.1,0-0.2,0-0.3,0c-2.4,0.1-5.3,2.4-5.2,4.8c0,2.101,1.3,4.101,2.5,6.2c0.9,1.7,2.1,3.1,2.2,6.3
				C219.3,319.3,219,321.1,218.3,325.3z M217.7,342c0,0,1.5-10.3,2.9-15.8c1.3-5.5,2.2-8.101,2.2-8.101c1.5-4.1,2.3-5.8,2.2-8.5
				c0-0.899,0-2.6-0.2-3.8c1.3,2.2,2.4,4.7,3.2,7.3C231.2,324.3,226.3,336.5,217.7,342z"/>
		</g>
		<path d="M226.322,369.15c-0.021,0-0.044,0-0.065-0.001c-29.209-1.272-52.089-25.188-52.089-54.446
			c0-17.303,7.944-33.195,21.795-43.602c0.664-0.496,1.602-0.365,2.1,0.299c0.498,0.662,0.364,1.602-0.298,2.1
			c-13.089,9.836-20.597,24.854-20.597,41.203c0,27.646,21.62,50.246,49.218,51.448c0.828,0.036,1.47,0.735,1.435,1.563
			C227.785,368.521,227.121,369.15,226.322,369.15"/>
	</g>
	<g id="body">
		<path fill="#FFD200" d="M244.335,369.118c8.132,0.723,21.492-0.782,35-10.082c24.383-16.789,22-68.667,14.333-90.333
			s-23.667-36.334-45.667-37s-40.333,9-50,24.333c-6.52,10.341-1.666,15.999,1.334,17.333s15.666-3.666,19.333-10.333
			c8.667,5.333,18.333,2.999,26.667,0.333l0.1,2.261c-8.216,0.453-16.061,3.304-21.1,7.739c-8.334,7.334-2.666,12.668,3.666,13.334
			c6.334,0.666,18.666-5,28.334-3c9.666,2,12.631,5.542,22.965,14.875c0,0,5.668,22.671,0,31.361
			c-9.823-5.668-27.583,0.756-32.872,12.847L244.335,369.118z"/>
		<path d="M247.938,370.771c-1.496,0-2.756-0.071-3.734-0.158c-0.825-0.072-1.436-0.803-1.361-1.627
			c0.073-0.826,0.818-1.431,1.627-1.36c5.26,0.463,19.102,0.445,34.018-9.824c23.476-16.164,21.41-67.006,13.77-88.598
			c-7.879-22.266-24.025-35.387-44.298-36c-20.763-0.629-38.959,8.207-48.687,23.633c-2.659,4.219-3.578,8.054-2.655,11.09
			c0.672,2.212,2.214,3.576,3.33,4.072c1.889,0.842,13.915-3.332,17.409-9.686c0.198-0.359,0.534-0.622,0.933-0.727
			c0.397-0.104,0.819-0.041,1.168,0.173c8.205,5.049,17.426,2.741,25.424,0.182c0.792-0.252,1.634,0.183,1.886,0.972
			s-0.183,1.633-0.973,1.885c-8.82,2.824-18.124,4.766-26.626,0.25c-4.733,6.572-16.744,11.334-20.439,9.693
			c-1.775-0.789-4.017-2.766-4.982-5.943c-0.825-2.715-0.976-7.272,2.989-13.561c10.299-16.336,29.479-25.703,51.313-25.033
			c21.579,0.653,38.722,14.504,47.036,38c3.594,10.155,6.514,28.818,4.934,47.621c-1.254,14.91-5.711,34.726-19.83,44.446
			C267.225,369.195,254.969,370.771,247.938,370.771"/>
		<path d="M279.475,331.345c-0.144,0-0.287-0.02-0.43-0.062c-0.794-0.236-1.246-1.071-1.01-1.865
			c1.414-4.751,2.132-9.701,2.132-14.716c0-5.571-0.884-11.051-2.628-16.287c-0.262-0.786,0.163-1.635,0.949-1.898
			c0.785-0.26,1.635,0.164,1.896,0.95c1.847,5.542,2.782,11.341,2.782,17.235c0,5.305-0.759,10.543-2.257,15.571
			C280.717,330.924,280.119,331.345,279.475,331.345"/>
		<path d="M247,343.536c-0.223,0-0.447-0.049-0.66-0.153c-0.742-0.365-1.051-1.264-0.686-2.008
			c4.029-8.214,11.617-13.458,20.816-14.39c7.586-0.771,15.15,1.615,18.383,5.801c0.508,0.655,0.387,1.598-0.27,2.104
			c-0.654,0.507-1.6,0.388-2.104-0.27c-2.592-3.354-9.19-5.308-15.709-4.65c-4.787,0.485-13.547,2.783-18.426,12.729
			C248.087,343.228,247.555,343.536,247,343.536"/>
		<path d="M282.668,302.536c-0.359,0-0.719-0.127-1.006-0.388l-1.186-1.071c-9.701-8.771-15.556-14.065-24.445-15.905
			c-5.35-1.105-11.733,0.311-17.365,1.559c-4.269,0.949-7.954,1.769-10.822,1.465c-4.405-0.465-7.897-2.783-8.892-5.908
			c-0.701-2.202-0.51-5.73,4.392-10.044c9.155-8.058,26.085-10.519,38.542-5.603c0.771,0.305,1.148,1.176,0.845,1.946
			c-0.305,0.771-1.177,1.15-1.945,0.845c-11.5-4.539-27.074-2.315-35.458,5.063c-2.875,2.53-4.124,4.974-3.515,6.881
			c0.623,1.96,3.174,3.502,6.347,3.835c2.385,0.248,6.014-0.555,9.858-1.408c5.926-1.315,12.644-2.808,18.622-1.568
			c9.69,2.005,16.119,7.818,25.85,16.617l1.187,1.072c0.614,0.555,0.662,1.504,0.106,2.117
			C283.484,302.369,283.077,302.536,282.668,302.536"/>
	</g>
	<g id="left-ear">
		<path fill="#FF8800" d="M274.001,241.036c-5.989-0.485-1.333,4.001,0.667,5.667s16.333,14.666,29.667,10.666
			c13.333-4,17.334-14.999,14.666-15.666C316.335,241.036,286.335,242.036,274.001,241.036"/>
		<path d="M299.025,259.631h-0.002c-5.248-0.002-13.84-1.992-24.957-11.47l-0.358-0.306c-4.915-4.094-4.237-5.965-4.015-6.58
			c0.426-1.178,1.596-1.776,3.475-1.776c0.288,0,0.605,0.015,0.954,0.042c5.196,0.421,13.668,0.471,19.588,0.471
			c3.224,0,6.45-0.017,9.474-0.031c2.666-0.014,5.174-0.026,7.379-0.026c6.352,0,8.078,0.112,8.804,0.294
			c1.165,0.291,1.882,1.322,1.915,2.756c0.084,3.639-4.812,12.291-16.516,15.803C302.943,259.352,301.014,259.631,299.025,259.631
			 M272.746,242.516c0.391,0.64,1.35,1.758,2.882,3.035l0.386,0.327c10.422,8.886,18.266,10.751,23.012,10.753h0.002
			c1.693,0,3.334-0.236,4.877-0.697c7.32-2.197,11.818-6.734,13.584-10.248c0.66-1.312,0.793-2.174,0.793-2.58
			c-0.995-0.1-3.586-0.151-7.719-0.151c-2.201,0-4.703,0.013-7.363,0.026c-3.027,0.015-6.262,0.031-9.488,0.031
			c-5.973,0-14.525-0.051-19.83-0.48C273.418,242.494,273.01,242.494,272.746,242.516"/>
	</g>
	<g id="right-hand">
		<path fill="#FFD200" d="M189.2,275.4c-3.4-1.1-11.3,5.1-10,10.4c1.4,5.3,7.4,4.8,11.1,0.6C194,282,192.5,276.4,189.2,275.4"/>
		<path d="M184.4,291.1L184.4,291.1c-3.3,0.2-5.8-1.7-6.7-5c-0.6-2.1,0-4.6,1.7-6.9c2.1-3,5.7-5.3,8.5-5.5c0.6,0,1.2,0,1.7,0.2
			c1.9,0.6,3.4,2.3,4,4.5c0.8,3,0,6.3-2.2,8.8C189.5,289.5,186.9,290.9,184.4,291.1 M188.1,276.7c-1.6,0.1-4.5,1.8-6.2,4.2
			c-0.7,0.9-1.7,2.7-1.2,4.4c0.6,2.4,2.3,2.8,3.6,2.7c1.7-0.1,3.5-1.1,4.9-2.8c1.6-1.8,2.2-4.1,1.6-6.1c-0.3-1.2-1.1-2.2-2-2.5
			C188.6,276.7,188.4,276.7,188.1,276.7"/>
	</g>
	<g id="face">
		<path d="M216.001,254.369c-2.385,1.789-1.666,4.001,1,4.334c2.667,0.333,2.875,0.51,5.334-1.334c2.666-2,3-5.334,0-5
			S217.335,253.369,216.001,254.369"/>
		<path d="M209.001,255.703c0,1.657-1.343,3-3,3c-1.656,0-3-1.343-3-3c0-1.657,1.344-3,3-3
			C207.658,252.703,209.001,254.046,209.001,255.703"/>
		<path d="M243.668,247.37c0,1.657-1.343,3-3,3c-1.657,0-3-1.343-3-3c0-1.657,1.343-3,3-3
			C242.325,244.37,243.668,245.713,243.668,247.37"/>
	</g>
	<g id="left-foot">
		<path fill="#FFD200" d="M247.001,363.703c0,0-2,11.666-13,11.666s-6.333-13.333-7.666-22c-1.334-8.667-6.667-20,1.333-25.333
			s17.667,10.333,19.333,16.333C249.335,352.369,249.001,357.37,247.001,363.703"/>
		<path d="M234.001,377.369c-2.907,0-5.187-0.834-6.777-2.479c-3.051-3.154-2.873-8.507-2.701-13.683
			c0.087-2.613,0.178-5.315-0.164-7.536c-0.281-1.827-0.75-3.787-1.246-5.861c-1.853-7.736-3.951-16.508,3.446-21.438
			c1.419-0.946,2.96-1.426,4.581-1.426c8.688,0,16.344,13.688,17.788,18.888c2.57,8.809,1.963,14.152,0.021,20.346
			C248.1,368.823,243.936,377.369,234.001,377.369 M231.14,328.946c-0.829,0-1.602,0.247-2.361,0.754
			c-4.725,3.148-3.771,8.848-1.777,17.181c0.494,2.062,1.004,4.193,1.311,6.185c0.398,2.589,0.303,5.48,0.209,8.277
			c-0.145,4.342-0.294,8.833,1.578,10.769c0.818,0.847,2.096,1.259,3.902,1.259c9.145,0,10.957-9.603,11.03-10.01
			c0.015-0.086,0.036-0.177,0.062-0.26c1.783-5.646,2.309-10.213-0.013-18.171C243.596,339.582,236.534,328.946,231.14,328.946"/>
	</g>
	<g id="toothpick">
		<path id="SVGID_1_" fill="#C9A063" d="M169.7,231.2c-0.4-0.6-1.8-0.4-3.1,0.5c-1.3,0.9-2.1,2.1-1.7,2.7s2,3.1,2,3.1
			c0.2,0.3,0.6,0.4,1.2,0.3c0.2,0.3,0.5,0.8,0.7,1.1c-0.3,0.5-0.4,0.9-0.2,1.2c0.3,0.5,4.3,5.3,5.7,7.2c-0.3,0.5-0.4,0.9-0.2,1.2
			c0.4,0.6,1.3,2,1.3,2c0.2,0.3,0.6,0.4,1.2,0.3c0.3,0.4,0.8,1.2,1.1,1.7c-0.3,0.5-0.4,0.9-0.2,1.2c0.4,0.6,16.9,24.4,16.9,24.4
			s1,0.1,2-0.6c1.1-0.7,1.3-1.7,1.3-1.7s-15.3-25-15.5-25.3c-0.2-0.3-0.6-0.4-1.2-0.3c-0.3-0.5-0.9-1.3-1.1-1.7
			c0.3-0.5,0.4-0.9,0.2-1.2l0,0l0,0c0,0-1.1-1.7-1.2-1.9c-0.2-0.3-0.6-0.4-1.2-0.3c-1.2-2.1-4.2-7.9-4.4-8.1
			c-0.2-0.3-0.6-0.4-1.2-0.3c-0.2-0.4-0.5-0.8-0.7-1.1c0.3-0.5,0.4-0.9,0.2-1.2l0,0l0,0C171.7,234.3,169.9,231.5,169.7,231.2z"/>

			<ellipse transform="matrix(-0.5457 -0.838 0.838 -0.5457 63.5443 500.0229)" fill="#A67936" cx="167.305" cy="232.788" rx="1.3" ry="2.9"/>
		<path id="SVGID_2_" fill="none" stroke="#000000" stroke-width="2" stroke-linecap="round" stroke-linejoin="round" d="
			M169.7,231.2c-0.4-0.6-1.8-0.4-3.1,0.5c-1.3,0.9-2.1,2.1-1.7,2.7s2,3.1,2,3.1c0.2,0.3,0.6,0.4,1.2,0.3c0.2,0.3,0.5,0.8,0.7,1.1
			c-0.3,0.5-0.4,0.9-0.2,1.2c0.3,0.5,4.3,5.3,5.7,7.2c-0.3,0.5-0.4,0.9-0.2,1.2c0.4,0.6,1.3,2,1.3,2c0.2,0.3,0.6,0.4,1.2,0.3
			c0.3,0.4,0.8,1.2,1.1,1.7c-0.3,0.5-0.4,0.9-0.2,1.2c0.4,0.6,16.9,24.4,16.9,24.4s1,0.1,2-0.6c1.1-0.7,1.3-1.7,1.3-1.7
			s-15.3-25-15.5-25.3c-0.2-0.3-0.6-0.4-1.2-0.3c-0.3-0.5-0.9-1.3-1.1-1.7c0.3-0.5,0.4-0.9,0.2-1.2l0,0l0,0c0,0-1.1-1.7-1.2-1.9
			c-0.2-0.3-0.6-0.4-1.2-0.3c-1.2-2.1-4.2-7.9-4.4-8.1c-0.2-0.3-0.6-0.4-1.2-0.3c-0.2-0.4-0.5-0.8-0.7-1.1c0.3-0.5,0.4-0.9,0.2-1.2
			l0,0l0,0C171.7,234.3,169.9,231.5,169.7,231.2z"/>
	</g>
</g>
</svg>
