<?xml version="1.0" encoding="UTF-8"?>
<svg id="artboard" xmlns="http://www.w3.org/2000/svg" version="1.1" viewBox="0 0 256 256">
  <!-- Generator: Adobe Illustrator 29.5.0, SVG Export Plug-In . SVG Version: 2.1.0 Build 137)  -->
  <g id="wapuu">
    <path id="silhouette" d="M105.2902097,220.9174748c-14.7001996,0-28.3998993-7.3993998-35.4999991-14.7001996-4.2001999-4.2997999-6.3998998-8.7997998-6.2001998-12.8993997.2002-7.6005998,5.3002999-12.7002059,12.4999997-12.7002059,6.8998998,0,13.8998996,4.5,18.2001995,11.900406,3.2997999,5.4999999,9.3999092,6.6991998,13.9999996,6.6991998h0c10.7997997,0,25.4994994-6.5996058,35.6996991-17.9999995-3.2001999.5-5.9999998.6006-8.2001998.6006h-.8994c-3.2997999,3.9999999-7.8002998,6.0995998-13.1000997,6.0995998-3.4999999,0-9.1000901-1.0996-11.2001997-7.9999998-9.6996998-1-18.7997995-4.2998063-26.6996993-9.7998063-.200191.7998065-.6001,1.5996065-1.1001,2.4004065-1.5,2.3993999-4.100091,3.6991999-7.2001998,3.6991999-1,0-2.1000999-.0996064-3.1996999-.3994-11.6000997-2.7997999-25.9999993-18.9003995-27.9999993-28.4999993-1-4.7002071,0-9.1005998,2.5995999-12.4003997,2.4003999-2.9999999,6.1000998-4.7001999,9.9999997-4.7001999.8003,0,1.6001.1006,2.4003999.2002-.3003-2.5995999-.5-5.0995999-.5-7.7001998,0-8.7997998,1.3999-17.8993995,5.1996999-25.7997993-.6997-.7998084-1.5-4.5995999.3999-8.4999998,1.9004-3.8998999,4.8002999-5.8998999,6.7002085-6.7998086-4.2998086-1.5-6.1001085-3.8998911-6.2998085-6.2001911-.3003-3.0995999,1.6997-5.7998089,4.7998085-6.4999998,1.8998913-.3999,8.7997912-4.2998091,12.5-7.7998091,10.8998908-16.8998903,31-26.70019,53.5995897-26,10.4999997.2998099,19.9004103,3.5,28.1005993,9.5,5.0995999.2998097,12.299811.2998097,17.4999996.2998097h16.7998114c6.799788,0,8.5.1001,9.5995879.4004,2.4999999.5996,4.1005999,2.7997903,4.2001999,5.5995999.1006,5.3002999-5.7001999,14.9003996-18.7001995,18.7001905-2.0995883.6001091-4.2997999.899909-6.5995883.899909-1,0-2-.1001-3-.1997.7001885,1.5,1.2997885,3.0995999,1.9003884,4.6996999,8.1991998,23.3002994,10.1991997,75.5004981-14.7001996,94.6000911-6.7997998,23-30.1005992,43.7998054-56.2001888,50-3,1-6.2002096,1.2998052-9.3999095,1.2998052"/>
    <g id="tail">
      <path d="M167.0251192,167.1537762c-5.667,21.6669995-28,42.3329989-53.334,48.3329988-21.793,5.1611999-46-11.6659997-45.666-21.9999994.375-11.6366997,15-10.9999997,22.333,1.334,11.2338906,18.8945995,49.667,5.6659999,64-20.6669995l12.667-6.9999998Z" fill="#f80"/>
      <path d="M105.3659097,217.9330749c-11.6659997,0-23.1069994-4.9950999-30.3627905-10.9266997-5.52-4.5127056-8.6099085-9.4579998-8.4771085-13.5683997.1592-4.9374999,2.6451085-8.3866998,6.8198998-9.4608998,5.3022087-1.3692,13.2943997,1.6552,18.3012087,10.0760997,4.1230907,6.9335998,11.6147905,8.2773998,17.1410904,8.1572998,16.4697996-.3116,35.4936991-12.6835997,44.2534989-28.7734993.3955-.7285,1.3076-.997,2.0331999-.6015.7285.3965.997,1.3076.6015,2.0341935-9.2333998,16.964806-29.3671993,30.0087057-46.8304988,30.3398056-9.0058998.1484-15.9848996-3.2480999-19.7758995-9.6230998-4.2528909-7.1512998-10.7489997-9.7938998-14.9740996-8.7049998-2.8325999.7295-4.4555999,3.0926999-4.5707913,6.6522939-.1001086,3.124,2.6571913,7.292,7.3768912,11.1504057,8.4862998,6.9374998,23.0478994,12.5155943,36.4438991,9.3417998,24.6283994-5.8319999,46.5932097-25.7050994,52.2289987-47.2528988.2099-.8018,1.0244-1.2813066,1.831-1.0713066.8018.209,1.2813,1.0293066,1.0713,1.831-5.9003999,22.557706-28.7948993,43.3389055-54.4389986,49.4131053-2.8651999.6787-5.7772999.9873-8.6722998.9873"/>
    </g>
    <g id="right-ear">
      <path d="M82.0251192,76.4867785c-13,3.6660999-14.334-2.3329999-11.334-2.9999999s11-5.3329999,15-9.3329998l-3.666,12.3329997Z" fill="#f80"/>
      <path d="M74.7853104,79.1718784c-3.3930999,0-5.0892999-1.0264-5.9032999-1.8511-.8901-.9004-1.2318914-2.0858999-.9131-3.1678999.3154-1.0704,1.2114-1.8663,2.3969999-2.1313999,2.5839999-.5737,10.3212997-4.9848999,14.2650996-8.9286998.586-.5859,1.5352-.5859,2.121109,0,.5858909.585.5858909,1.5356,0,2.1205999-4.131809,4.1322908-12.3672087,8.9882908-15.7358087,9.7372908-.1391913.0308089-.1831.0781089-.1841.0781089.0151-.0044.103.1617.435.3877.625.4209,3.2109999,1.6401911,10.3510997-.374.7959-.2227,1.626.2383,1.8506,1.0361.2251.7979-.2397,1.626-1.0366,1.8510911-3.2069999.9058088-5.7050999,1.2422088-7.6469998,1.2422088"/>
    </g>
    <g id="right-foot">
      <path d="M64.0251192,137.486777c-8.1392083-6.2616998-17.334-.666-15.334,8.9999998,1.644,7.9413998,15.0677915,22.6962994,24.667,24.9999994,8.333,1.9999999,6.6488911-6.9921065,5.333-9.9999997-2.333-5.3329999-10.333-20.6659995-14.666-23.9999994" fill="#ffd200"/>
      <path d="M75.5373104,173.2738761h0c-.7691,0-1.6211-.1103-2.5292999-.3291-10.1449997-2.4354999-24.0297994-17.6678996-25.7856993-26.1541993-.7851-3.7949999-.0644-7.3027998,2.0298081-9.8749998,1.8510918-2.2705999,4.6488918-3.5751999,7.6767917-3.5751999,2.7259999,0,5.4960999,1.0234,8.0112083,2.9579999,4.938,3.8006999,13.3168912,20.4540995,15.125,24.5868994.752,1.7197,2.2450911,6.8798998.1527911,10.0780997-.6889,1.0547-2.0609999,2.3104999-4.6805999,2.3104999M56.9289109,136.340377c-2.1528999,0-4.0536999.8769-5.3495999,2.4696999-1.5141918,1.8594-2.0180999,4.4784999-1.4204,7.3739998,1.5292081,7.3856998,14.6572081,21.7108995,23.5482994,23.8446994.6797.1631,1.2959087.2461,1.8301.2461,1.3867,0,1.9028088-.5429,2.1698999-.9521,1.084-1.6592.4697-5.2675999-.3900912-7.2333998-2.462-5.6269999-10.2642086-20.3788995-14.2071085-23.4130994-1.9857999-1.5283-4.1219999-2.3358999-6.1810998-2.3358999"/>
    </g>
    <g id="takoyaki">
      <circle cx="117.1901192" cy="122.5179523" r="58.5000618" display="none"/>
      <path d="M113.9899095,175.717276c-28.1996993-1.1992-50.6996987-24.4999994-50.6996987-52.8993987,0-17.3002996,8.2997998-32.7002077,21.1996995-42.4003989,9.1000998,4.7001912,16.3002996-3.9999999,21.9999994-8.0995998,16.2002096,4.1996999,42.4003989,1.6997,60.1005985,33.7001991,2.6991999,4.8993999,2.6991999,10.8993997,2.6991999,16.7997996,0,5.2997923-.7998,10.2997923-2.1991999,15.0995996-12.9999997-4.7998073-28.4999993,1.2001927-32.9999992,12.9003997-8.7001998,15.5995996-20.1005995,24.8993994-20.1005995,24.8993994" fill="#ef9b2b"/>
      <path d="M166.6901192,106.2172777s0-.0996081-.0996111-.0996081c-17.7001996-32-43.9003889-29.6000911-60.1005985-33.700191-5.6996999,4.200191-12.7997904,12.8002997-21.9999994,8.1000998-7.3998998,5.6000912-13.299791,12.9999997-16.9999996,21.6000912,3.1000999,4.2998081,10.3666997,5.333,14.3666996.8335082,4.9003999-5.6000999,17.4999996-5.1000999,21.9999994.6001s19.3335095,5.6659999,24.3335095-.8335c5-6.4999998,17.2997895-5.9999998,22.7001893,1,4.2001999,5.1000999,11.0995997,5.6996999,15.7998107,2.4994999Z" fill="#683e15"/>
      <g>
        <rect x="91.6058977" y="88.1198479" width="5.5004744" height="5.5000562" transform="translate(-36.6185627 93.3281547) rotate(-44.9969909)" fill="#18890b"/>
        <rect x="77.6027157" y="88.1220815" width="5.5004391" height="5.5004391" transform="translate(-40.7211121 83.426204) rotate(-44.9963172)" fill="#18890b"/>
        <rect x="105.5792168" y="88.0956416" width="5.4995903" height="5.4998731" transform="translate(-32.5064486 103.2337554) rotate(-45.0103832)" fill="#18890b"/>
        <rect x="99.5868363" y="77.9174204" width="5.4996968" height="5.5001116" transform="translate(-27.5881403 90.6463844) rotate(-42.6391413)" fill="#bf1919"/>
        <rect x="113.0705205" y="78.0967056" width="5.4998778" height="5.4999455" transform="translate(-24.1448833 99.8273807) rotate(-42.6391413)" fill="#bf1919"/>
        <rect x="85.5854058" y="77.9188704" width="5.4997587" height="5.5001117" transform="translate(-31.2906027 81.1641183) rotate(-42.6399077)" fill="#bf1919"/>
      </g>
      <g>
        <path d="M118.8903093,120.3178774c-4.4003999-15.4999996-18.4999995-25.2002078-33.3002992-21.4999995-15.4999996,3.8998999-21.6000995,20.7997917-17.899891,34.9999991,3.3998913,12.7997926,16.299791,24.5995994,32.7997906,21.3993995,13.6000997-2.5996069,22.8002994-19.5996069,18.4003995-34.8993991Z" fill="#683e15"/>
        <path d="M118.8903093,120.3178774c-4.4003999-15.4999996-18.4999995-25.2002078-33.3002992-21.4999995-15.4999996,3.8998999-21.6000995,20.7997917-17.899891,34.9999991,3.3998913,12.7997926,16.299791,24.5995994,32.7997906,21.3993995,13.6000997-2.5996069,22.8002994-19.5996069,18.4003995-34.8993991ZM69.2902106,133.3178771c-1.5-5.4999999-1.3003-11.2997997.5-16.6005996,0,0,2.4999999,9.4999998,4.7997999,15.7001996,2.3002999,6.2001925,7.9999998,17.7001925,7.9999998,17.7001925-6.6996998-3.5-11.4999997-10-13.2997997-16.7997925ZM99.0900098,152.6176696c-4.6000999.9004069-8.8998906.599607-12.7997997-.799793,0,0,.399909-5.4999999,1.6997-13.2997997.6001-3.8007999,1.6001-8.9999998,1.6001-8.9999998,0,0,2.3002999,5.4999999,5.3998999,11.6991997,2.8002999,5.4999999,6.1000998,10.1005997,6.1000998,10.1005997,0,.0996.2002.5.3003.5996-.7001906.2998-1.5.6006-2.3002999.700193ZM105.9899097,133.4174771l-2.1996999,10.2997997s-4.8002999-9.7997998-7.6000905-17.1991996c-2.7998092-7.4004076-3.7002092-11.1005997-3.7002092-11.1005997,1.4004-.0996,3.2002092-.5,3.2002092-.5,1.2997907-.2002,1.1000907-2.2001999-.2002093-2.0995999,0,0-3.8998999.5-6.3998998.5-2.3998909.0996-6.2997998-.1006-6.2997998-.1006-1.3003,0-1.3999,2.1005999-.100091,2.1005999,0,0,.899891.0996,2.200191.2002l3.5995999,10.9999997s-1,4.2997999-1.6997,7.6991998c-.7002,3.3007999-1.5,9.6005998-1.5,9.6005998,0,0-4.3002999-8.9999998-6.3002998-15.4003996-1.9999999-6.3993998-3.5995999-12.8993997-3.5995999-12.8993997,1.5-.1006,2.5995999-.1006,2.5995999-.1006,1.3003-.2002,1.1001-2.0995999-.1997-1.9999999,0,0-3.1000912.1006-5.7001999.200192-.5,0-.7998-.599592-1.1001-.099592l.1001-.2002c2.8002999-5.4003999,7.4999998-9.6000998,14.2001996-11.3002997,8.2997998-2.1000999,16.399909.5,22.2997994,6.1000917h-.2998c-2.3998999.0996081-5.3002999,2.400408-5.2001999,4.799808,0,2.1005999,1.3003,4.1005999,2.4999999,6.200192.8999,1.7002078,2.1001095,3.0996077,2.2001999,6.2998077.1997,1.9999999-.1000904,3.7997999-.8003,7.9999998ZM105.3903097,150.1176696s1.5-10.2997927,2.8998999-15.7997926c1.2998-5.4999999,2.1996999-8.1005998,2.1996999-8.1005998,1.5-4.0996076,2.3002999-5.7997999,2.2002097-8.4999998,0-.8994,0-2.5996079-.2002097-3.7997999,1.3003,2.2001921,2.4003999,4.7001921,3.2002097,7.2997998,3.2001901,11.2001997-1.7002097,23.4003922-10.2998095,28.9003922Z" fill="#fce5c2"/>
      </g>
      <path d="M114.0119095,177.268076c-.021,0-.044,0-.065-.001-29.2088993-1.2724063-52.0887903-25.1884994-52.0887903-54.4462986,0-17.3031996,7.9437914-33.1952992,21.794891-43.6019989.664109-.4961088,1.602-.3653,2.100109.2988.498.6620912.363791,1.6020912-.297909,2.1000912-13.0892997,9.8359085-20.597091,24.8535081-20.597091,41.2031077,0,27.6464993,21.6200909,50.2460987,49.2181903,51.4482987.8277.0361,1.4698097.7353,1.4346,1.5634-.0356.8067-.6997,1.4356-1.499,1.4356"/>
    </g>
    <g id="body">
      <path d="M132.0251192,177.235876c8.1317896.7226,21.4920893-.7823,35-10.0820997,24.3827883-16.7889996,22-68.6669983,14.333-90.3329977s-23.667-36.3339991-45.667-36.9999991-40.333,8.9999998-50,24.3329994c-6.52,10.3408908-1.666,15.9990996,1.334,17.3329996,3,1.334,15.666-3.6659999,19.333-10.3329997,8.667,5.3329999,18.333,2.9990999,26.667.333l.0995898,2.2607999c-8.2157998.453091-16.0605898,3.3036999-21.0995898,7.7391998-8.334,7.3339998-2.6661096,12.6679997,3.666,13.3339997,6.334.666,18.666-4.9999999,28.334-2.9999999,9.666,1.9999999,12.6307892,5.5419999,22.9647889,14.8749996,0,0,5.6679999,22.6708919,0,31.3613992-9.8231998-5.6679999-27.5829993.7558-32.8720992,12.8465997l-2.0926897,26.3320993Z" fill="#ffd200"/>
      <path d="M135.6276089,178.8891759c-1.4961,0-2.7558999-.0713-3.7343999-.1582-.8252-.0723063-1.4355-.8028-1.3613-1.627.0732102-.8261.8184-1.4306,1.627-1.3603064,5.2596999.4629064,19.1014995.4453064,34.0174991-9.8241934,23.4755994-16.1640996,21.4101995-67.0058983,13.7695997-88.5976978-7.8788886-22.2661089-24.0253994-35.3871991-44.2978886-35.9999991-20.7632098-.6289-38.959,8.2069998-48.687,23.6327994-2.659209,4.2192999-3.578109,8.0541998-2.654809,11.0898997.6719,2.2123999,2.2138999,3.5760999,3.3295999,4.0721911,1.8892091.8418088,13.9149996-3.332,17.4092091-9.686.1981905-.3588909.5341905-.6220909.9330905-.7270909.397-.104.8188-.041,1.168.1729,8.2049998,5.0492999,17.4256996,2.7411909,25.4237994.1821.792-.2519091,1.6338.1830909,1.8857.9722.252.789-.1825897,1.6328-.9725897,1.8848-8.81991,2.8241999-18.1241098,4.766091-26.626.25-4.7329094,6.5721998-16.7441091,11.3338997-20.439,9.6932998-1.774909-.7891-4.0171089-2.7660999-4.9819089-5.9432998-.8252-2.7149089-.9760911-7.2719998,2.9887999-13.5610997,10.2992997-16.3358996,29.4789993-25.7025994,51.3129987-25.0326994,21.5791103.6528,38.721599,14.5038901,47.0361103,37.999999,3.5936884,10.1547997,6.5136884,28.8178911,4.9335884,47.6210988-1.2539,14.9101996-5.7109999,34.7255991-19.8300995,44.4462989-12.9628997,8.9237998-25.2186994,10.4999997-32.2499992,10.4999997"/>
      <path d="M167.1647081,139.4623769c-.1435,0-.2871-.0195-.4297-.0615-.7938889-.2363-1.2461-1.0713-1.0097-1.8652073,1.414-4.751,2.1318111-9.7011924,2.1318111-14.7158923,0-5.5711999-.8838111-11.0506997-2.627911-16.2871077-.2618-.7860918.163-1.6351918.9492-1.8978918.7851-.2603,1.6347111.1641,1.8955.9497,1.8467,5.5419999,2.7822111,11.3407997,2.7822111,17.2352996,0,5.3046999-.7588112,10.5429997-2.2568111,15.5712996-.1924.6504-.7901,1.0713-1.4346,1.0713"/>
      <path d="M134.6901192,151.6537766c-.2227103,0-.4473103-.0488-.6602103-.1533-.7421-.3652-1.0507-1.2637-.6855-2.007807,4.0292999-8.2138927,11.6171997-13.458,20.8163995-14.3895926,7.5858998-.7715,15.1503996,1.6152,18.3827995,5.8006999.5078.6553.3867,1.5977-.2694888,2.1034999-.6543112.5069-1.5996112.3877-2.1035112-.2695-2.5917999-3.3534999-9.1904888-5.3075999-15.7089996-4.6503999-4.7870999.4854-13.5468997,2.7831999-18.4257995,12.7284997-.2588.5293-.791.8379-1.3456897.8379"/>
      <path d="M170.3581192,110.6537776c-.3594112,0-.7188112-.1269-1.0059111-.3877l-1.1855-1.0713c-9.7011998-8.7708998-15.5556996-14.0648996-24.4452994-15.9051996-5.3496999-1.105-11.7333997.311-17.3652895,1.5590915-4.269.9492084-7.9541099,1.769-10.8222098,1.4648084-4.4047902-.4648084-7.8969998-2.7826999-8.8916998-5.9076999-.7010904-2.2021999-.5102-5.7299999,4.3916999-10.0439997,9.1552097-8.0581088,26.0848993-10.5189997,38.541899-5.6029999.7706.3047,1.1485,1.1758.8448,1.9458-.3047.771-1.1768,1.1499-1.9453.8452-11.4999997-4.5389999-27.0742993-2.3148999-35.4580991,5.0629999-2.8749999,2.5297999-4.1239999,4.9735999-3.5150903,6.8808913.6230904,1.9599085,3.1737903,3.5019085,6.3471902,3.8349085,2.3846999.2480915,6.0136998-.5547,9.8578998-1.4077,5.9262999-1.3154,12.6439997-2.8080999,18.6215995-1.5683,9.6903998,2.0052999,16.1190996,7.8182998,25.8495993,16.6166996l1.1865,1.0722c.6143.5547.6621,1.5039.1065,2.1171919-.2969.328108-.7042.495108-1.1132888.495108"/>
    </g>
    <g id="left-ear">
      <path d="M161.6911192,49.1537792c-5.9893108-.4853-1.333,4.0009999.667,5.6669999s16.333,14.6659996,29.667,10.6659997c13.333-3.9999999,17.3338878-14.9989996,14.666-15.6659996-2.666-.667-32.666.333-45-.667" fill="#f80"/>
      <path d="M186.7155076,67.7485787h-.002c-5.2479999-.002-13.8397997-1.9916999-24.9569994-11.4697997l-.358389-.3061094c-4.915-4.0937905-4.2373108-5.9648904-4.0146108-6.5800904.4257-1.1777,1.5957-1.7759096,3.4746108-1.7759096.2880891,0,.6053891.0152096.954089.042,5.1962999.4209096,13.667911.4712096,19.587911.4712096,3.2235885,0,6.4501884-.0171,9.4735883-.0312096,2.6659999-.0141904,5.1737999-.0258904,7.3788998-.0258904,6.3515998,0,8.0780998.1118,8.8036998.2938904,1.1651.291,1.8818121,1.3218096,1.9151,2.7559095.0839,3.6390905-4.8124999,12.2909997-16.5156996,15.8031996-1.8222.544-3.7518999.8228-5.7401999.8228M160.4362083,50.6337791c.3906.6401,1.3496,1.7578,2.8817999,3.0346999l.3858.3271c10.4217997,8.8862998,18.2655995,10.7509997,23.0116994,10.7529997h.0019c1.6934,0,3.3339999-.2359092,4.8769999-.6968,7.3202998-2.1972999,11.8183997-6.7338998,13.5839997-10.2481092.6601-1.312.793-2.1737905.793-2.58-.9952-.1000905-3.5859999-.1508905-7.7187998-.1508905-2.2011999,0-4.7030999.0127-7.3632998.0258905-3.0272999.0151095-6.2616998.0312095-9.4882998.0312095-5.9725998,0-14.5253996-.0513-19.8299995-.48-.4628891-.0381-.8711-.0381-1.1348-.0161"/>
    </g>
    <g id="right-hand">
      <path d="M76.8903104,83.5175783c-3.4003999-1.1001-11.3002997,5.1000913-9.9999997,10.3998997,1.3999,5.3002999,7.3998998,4.8002999,11.0995997.6001,3.7002088-4.3999084,2.2002088-9.9999997-1.0996-10.9999997" fill="#ffd200"/>
      <path d="M72.0900105,99.2177779h0c-3.2997999.1997-5.7997999-1.7002-6.6996998-4.9999999-.6001-2.1001084,0-4.6001084,1.6997-6.8998998,2.1001086-2.9999999,5.7001999-5.3002999,8.4999998-5.4999999.6001088,0,1.2002,0,1.7002.1997,1.8999088.6000912,3.3999088,2.3002999,3.9999999,4.4999999.7998,2.9999999,0,6.3002998-2.2001999,8.8002998-1.8998911,2.2997916-4.4999999,3.6996999-6.9999998,3.8998999M75.7902104,84.8178783c-1.6000912.0996-4.4999999,1.7997913-6.2001998,4.1996999-.6997.8999-1.6997,2.7001999-1.1997,4.3998999.5996,2.4003999,2.2998086,2.8002999,3.5995999,2.7001915,1.7002087-.1000916,3.4999999-1.1000916,4.9003999-2.7997915,1.5996-1.8003,2.1996999-4.1000999,1.5996-6.1000998-.2997912-1.2002-1.0996-2.2001999-1.9999999-2.4999999-.1997.1001-.3999.1001-.6997.1001"/>
    </g>
    <g id="face">
      <path d="M103.6911192,62.4867789c-2.3848094,1.7891-1.666,4.0009999,1,4.3339999,2.667.333,2.875.5098,5.334-1.334,2.666-1.9999999,3-5.3338999,0-4.9999999-3,.334-5,1-6.334,1.9999999"/>
      <path d="M96.6911192,63.8207788c0,1.6568-1.3428093,2.9999999-3,2.9999999-1.6558092,0-3-1.3432-3-2.9999999,0-1.6572,1.3441908-2.9999999,3-2.9999999,1.6571907,0,3,1.3428,3,2.9999999"/>
      <path d="M131.3581192,55.487779c0,1.6568-1.3428102,2.9999999-3,2.9999999-1.6568101,0-3-1.3432-3-2.9999999,0-1.6572,1.3431899-2.9999999,3-2.9999999,1.6571898,0,3,1.3428,3,2.9999999"/>
    </g>
    <g id="left-foot">
      <path d="M134.6911192,171.8207761s-2,11.6659997-13,11.6659997-6.333-13.3329997-7.666-21.9999994c-1.334-8.6669998-6.667-19.9999995,1.333-25.3329994s17.667,10.3329997,19.333,16.3329996c2.334,7.9999998,2,13.0009997,0,19.3339995" fill="#ffd200"/>
      <path d="M121.6911192,185.4867757c-2.9068099,0-5.187-.8339-6.7769098-2.4784999-3.0511999-3.1542999-2.8729999-8.5067998-2.7011999-13.6826062.087-2.6132934.1783-5.3153933-.164-7.5360933-.2808-1.8272-.75-3.7870999-1.2461-5.8613999-1.853-7.7362998-3.9506999-16.5077996,3.4462999-21.4383995,1.4189098-.9463,2.9599098-1.4258,4.5809999-1.4258,8.6879998,0,16.3442996,13.6874997,17.7875996,18.8876925,2.5703103,8.8086068,1.9629,14.1523066.0205,20.3457065-.8486,4.6434999-5.0126999,13.1893997-14.9471897,13.1893997M118.8302093,137.063977c-.8290901,0-1.602.2471-2.3612999.7539-4.7245999,3.1483999-3.7709999,8.8476998-1.7767902,17.1806996.4940902,2.0624999,1.0038902,4.1932999,1.311,6.1844998.3978902,2.5888999.3031902,5.4804999.209,8.2773998-.145,4.3417999-.294,8.8329998,1.5780902,10.7684997.8179098.8466937,2.0956999,1.2588,3.9019098,1.2588,9.1444898,0,10.957-9.6024998,11.0301898-10.0096997.0147-.086.0362-.1768.0616-.2598,1.7832102-5.6454999,2.3084999-10.2128997-.0127-18.1708995-1.4854-5.347707-8.5468998-15.9833996-13.9409996-15.9833996"/>
    </g>
    <g id="toothpick">
      <path id="SVGID" d="M57.3903109,39.3178794c-.4004-.6001-1.8003-.4004-3.1000999.5-1.3003.8999-2.1000918,2.0995999-1.7002,2.6996999.3999.6000902,1.9999999,3.1000902,1.9999999,3.1000902.2002.2998097.6001082.3999097,1.2002.2998097.1997.3003.5.8003.6997,1.1001-.2997917.5-.3999.8999-.1997,1.2002.2998.5,4.2997999,5.2997999,5.6996999,7.1996998-.2997916.5-.3999.9004-.1997,1.2001906.3999084.6001094,1.2998,2,1.2998,2,.2002.2998093.6001085.3999093,1.2002.2998093.2998.4004.7998,1.2001907,1.1001,1.7001907-.3003.5-.4004.8999093-.2001915,1.2002093.3998915.5996,16.8998911,24.3998994,16.8998911,24.3998994,0,0,1,.1001,1.9999999-.6001086,1.100109-.7001913,1.3003-1.7001913,1.3003-1.7001913,0,0-15.3002996-24.9999994-15.4999996-25.2998087-.2001914-.2997906-.6001-.3998906-1.2001914-.2997906-.2998086-.5-.8999086-1.3003-1.1001086-1.7002094.3003-.5.3999-.8998906.2002-1.2001906h0s-1.1000914-1.6997-1.2002-1.8999c-.1997-.2998-.6001-.3999095-1.1997-.2998-1.2001915-2.1001095-4.2001915-7.8998998-4.4003999-8.1001095-.1997-.2997903-.5996-.3998903-1.1997-.2997903-.2002-.4004-.5-.8003-.7002-1.1001.3003-.5.3999-.8999.2002-1.2002h0c.1001-.1001-1.7002-2.8999098-1.8999-3.1996999Z" fill="#c9a063"/>
      <path d="M54.285311,39.8158794c1.3423-.874,2.7475999-1.0952098,3.1396999-.4936.3916.6016-.3785,1.7978-1.7207,2.6723902-1.3418.874-2.7475999,1.0947097-3.1391917.4931098-.3921082-.6015.3783918-1.7978,1.7201918-2.6718999Z" fill="#a67936"/>
      <path id="SVGID1" data-name="SVGID" d="M57.3903109,39.3178794c-.4004-.6001-1.8003-.4004-3.1000999.5-1.3003.8999-2.1000918,2.0995999-1.7002,2.6996999.3999.6000902,1.9999999,3.1000902,1.9999999,3.1000902.2002.2998097.6001082.3999097,1.2002.2998097.1997.3003.5.8003.6997,1.1001-.2997917.5-.3999.8999-.1997,1.2002.2998.5,4.2997999,5.2997999,5.6996999,7.1996998-.2997916.5-.3999.9004-.1997,1.2001906.3999084.6001094,1.2998,2,1.2998,2,.2002.2998093.6001085.3999093,1.2002.2998093.2998.4004.7998,1.2001907,1.1001,1.7001907-.3003.5-.4004.8999093-.2001915,1.2002093.3998915.5996,16.8998911,24.3998994,16.8998911,24.3998994,0,0,1,.1001,1.9999999-.6001086,1.100109-.7001913,1.3003-1.7001913,1.3003-1.7001913,0,0-15.3002996-24.9999994-15.4999996-25.2998087-.2001914-.2997906-.6001-.3998906-1.2001914-.2997906-.2998086-.5-.8999086-1.3003-1.1001086-1.7002094.3003-.5.3999-.8998906.2002-1.2001906h0s-1.1000914-1.6997-1.2002-1.8999c-.1997-.2998-.6001-.3999095-1.1997-.2998-1.2001915-2.1001095-4.2001915-7.8998998-4.4003999-8.1001095-.1997-.2997903-.5996-.3998903-1.1997-.2997903-.2002-.4004-.5-.8003-.7002-1.1001.3003-.5.3999-.8999.2002-1.2002h0c.1001-.1001-1.7002-2.8999098-1.8999-3.1996999Z" fill="none" stroke="#000" stroke-linecap="round" stroke-linejoin="round" stroke-width="2"/>
    </g>
  </g>
</svg>