<?xml version="1.0" encoding="utf-8"?>
<!-- Generator: Adobe Illustrator 20.1.0, SVG Export Plug-In . SVG Version: 6.00 Build 0)  -->
<svg version="1.1" id="wapuu" xmlns="http://www.w3.org/2000/svg" xmlns:xlink="http://www.w3.org/1999/xlink" x="0px" y="0px"
	 viewBox="0 0 480 640" style="enable-background:new 0 0 480 640;" xml:space="preserve">
<style type="text/css">
	.st0{fill:#FFD200;}
	.st1{fill:#EF9B2B;}
	.st2{fill:#683E15;}
	.st3{fill:#18890B;}
	.st4{fill:#BF1919;}
	.st5{fill:#FF8800;}
	.st6{fill:#57A1BE;}
	.st7{display:none;fill:#C9A063;}
	.st8{display:none;fill:none;stroke:#000000;stroke-miterlimit:10;}
	.st9{fill:#C9A063;}
	.st10{clip-path:url(#SVGID_4_);fill:#A67936;}
	.st11{fill:none;stroke:#000000;stroke-width:2;stroke-linecap:round;stroke-linejoin:round;}
	.st12{opacity:0.8;fill:#FFFFFF;}
</style>
<g id="wapuu-group">
	<path d="M217.6,412.8c-14.7,0-28.4-7.4-35.5-14.7c-4.2-4.3-6.4-8.8-6.2-12.9c0.2-7.6,5.3-12.7,12.5-12.7c6.9,0,13.9,4.5,18.2,11.9
		c3.3,5.5,9.4,6.7,14,6.7l0,0c10.8,0,25.5-6.6,35.7-18c-3.2,0.5-6,0.6-8.2,0.6c-0.3,0-0.6,0-0.9,0c-3.3,4-7.8,6.1-13.1,6.1
		c-3.5,0-9.1-1.1-11.2-8c-9.7-1-18.8-4.3-26.7-9.8c-0.2,0.8-0.6,1.6-1.1,2.4c-1.5,2.4-4.1,3.7-7.2,3.7c-1,0-2.1-0.1-3.2-0.4
		c-11.6-2.8-26-18.9-28-28.5c-1-4.7,0-9.1,2.6-12.4c2.4-3,6.1-4.7,10-4.7c0.8,0,1.6,0.1,2.4,0.2c-0.3-2.6-0.5-5.1-0.5-7.7
		c0-8.8,1.4-17.9,5.2-25.8c-0.7-0.8-1.5-4.6,0.4-8.5s4.8-5.9,6.7-6.8c-4.3-1.5-6.1-3.9-6.3-6.2c-0.3-3.1,1.7-5.8,4.8-6.5
		c1.9-0.4,8.8-4.3,12.5-7.8c10.9-16.9,31-26.7,53.6-26c10.5,0.3,19.9,3.5,28.1,9.5c5.1,0.3,12.3,0.3,17.5,0.3c3.2,0,6.4,0,9.4,0
		c2.7,0,5.2,0,7.4,0c6.8,0,8.5,0.1,9.6,0.4c2.5,0.6,4.1,2.8,4.2,5.6c0.1,5.3-5.7,14.9-18.7,18.7c-2.1,0.6-4.3,0.9-6.6,0.9
		c-1,0-2-0.1-3-0.2c0.7,1.5,1.3,3.1,1.9,4.7c8.2,23.3,10.2,75.5-14.7,94.6c-6.8,23-30.1,43.8-56.2,50
		C224,412.5,220.8,412.8,217.6,412.8 M188.3,381.5c-1.4,0-3.4,0.4-3.5,4c0,1.2,0.9,3.5,3.7,6.4c5.6,5.8,17,11.9,29,11.9
		c2.6,0,5-0.3,7.4-0.8c18.9-4.5,36.6-18.1,45.4-33.9l-0.4,0.2c-10.2,17.6-31.2,30.7-49.5,30.7l0,0c-9.7,0-17.5-3.9-21.7-11.1
		C195.7,383.8,191.3,381.5,188.3,381.5 M226.5,363c0.6,0,1.2,0.1,1.7,0.3c1.6,0.6,2.6,2.1,2.8,3.8c0.3,3.8,1.1,3.8,3,3.8
		c3.1,0,5.3-1.3,7-4c0.9-1.5,2.5-2.3,4.2-2.2c0.9,0.1,1.8,0.1,2.8,0.1c4.4,0,11.2-0.7,19.1-4.1c2.2-0.9,4.8,0,5.8,2.2
		c0.1,0.2,0.2,0.3,0.2,0.5c0.7-1.8,1.3-3.6,1.8-5.4c0.3-1,0.9-2,1.8-2.6c21.3-14.7,20.3-63.5,12.6-85.1c-1.6-4.6-3.7-8.9-6-12.7
		c-1.1-1.7-0.9-3.9,0.5-5.4c1.3-1.5,3.5-1.9,5.3-1.1c3.6,1.7,6.9,2.6,9.9,2.6c1.4,0,2.8-0.2,4-0.6c5.7-1.7,9-4.7,10.8-7.1
		c-0.9,0-2,0-3.3,0c-2.2,0-4.7,0-7.3,0c-3,0-6.2,0-9.5,0c-5.7,0-14,0-19.4-0.4c-0.9-0.1-1.7-0.4-2.4-0.9c-6.9-5.3-15-8.2-24-8.4
		c-0.7,0-1.3,0-2,0c-18.8,0-35.3,8.3-44.1,22.3c-0.2,0.3-0.4,0.5-0.6,0.8c-1.1,1.1-2.6,2.3-4.2,3.5c1.2,0.7,2.1,1.9,2.3,3.4
		c0.2,2.1,1.6,3,1.8,3c2,1.1,2.9,3.6,1.9,5.7c-0.9,2.1-3.2,3.2-5.4,2.5l0,0c-1.6,1.3-3.8,1.4-5.4,0.3c-0.9,0.2-2.7,1.3-3.9,2.7
		c-0.7,0.9-0.9,1.5-0.8,1.7c0.1,0.3,0.1,0.4,0.2,0.5c1.4,1.5,1.6,3.8,0.4,5.5c-5.2,7.9-7.9,17.1-7.9,26.5c0,5.2,0.8,10.4,2.5,15.4
		c0.7,2.1-0.2,4.3-2.1,5.4c-1.9,1-4.3,0.6-5.7-1.1c-0.8-0.9-1.2-1.3-1.3-1.4c-1.5-1.1-3-1.7-4.4-1.7c-1.2,0-2.3,0.5-3,1.4
		c-0.9,1.1-1.2,2.9-0.8,4.9c1.3,6.4,13.7,19.7,21.3,21.5c0.4,0.1,0.7,0.1,0.9,0.2c0.1-1-0.2-2.7-0.7-4c-0.3-0.7-0.7-1.6-1.2-2.6
		c-1-2-0.3-4.4,1.5-5.7c1.8-1.3,4.3-1,5.8,0.7c8.5,9.2,20,14.7,32.4,15.5C225.8,363,226.2,363,226.5,363"/>
	<path class="st0" d="M176.3,329.4c-8.1-6.3-17.3-0.7-15.3,9c1.6,7.9,15.1,22.7,24.7,25c8.3,2,6.6-7,5.3-10
		C188.7,348,180.7,332.7,176.3,329.4"/>
	<circle cx="229.5" cy="314.4" r="58.5"/>
	<path d="M187.8,365.2L187.8,365.2c-0.8,0-1.6-0.1-2.5-0.3c-10.1-2.4-24-17.7-25.8-26.2c-0.8-3.8-0.1-7.3,2-9.9
		c1.9-2.3,4.6-3.6,7.7-3.6c2.7,0,5.5,1,8,3c4.9,3.8,13.3,20.5,15.1,24.6c0.8,1.7,2.2,6.9,0.2,10.1
		C191.8,363.9,190.5,365.2,187.8,365.2 M169.2,328.2c-2.2,0-4.1,0.9-5.4,2.5c-1.5,1.9-2,4.5-1.4,7.4c1.5,7.4,14.7,21.7,23.5,23.8
		c0.7,0.2,1.3,0.2,1.8,0.2c1.4,0,1.9-0.5,2.2-1c1.1-1.7,0.5-5.3-0.4-7.2c-2.5-5.6-10.3-20.4-14.2-23.4
		C173.4,329,171.3,328.2,169.2,328.2"/>
	<path d="M226.3,369.1L226.3,369.1c-29.3-1.3-52.2-25.2-52.2-54.4c0-17.3,7.9-33.2,21.8-43.6c0.7-0.5,1.6-0.4,2.1,0.3
		c0.5,0.7,0.4,1.6-0.3,2.1c-13.1,9.8-20.6,24.9-20.6,41.2c0,27.6,21.6,50.2,49.2,51.4c0.8,0,1.5,0.7,1.4,1.6
		C227.8,368.5,227.1,369.1,226.3,369.1"/>
	<path class="st1" d="M226.3,367.6c-28.2-1.2-50.7-24.5-50.7-52.9c0-17.3,8.3-32.7,21.2-42.4c9.1,4.7,16.3-4,22-8.1
		c16.2,4.2,42.4,1.7,60.1,33.7c2.7,4.9,2.7,10.9,2.7,16.8c0,5.3-0.8,10.3-2.2,15.1c-13-4.8-28.5,1.2-33,12.9
		C237.7,358.3,226.3,367.6,226.3,367.6"/>
	<path class="st2" d="M279,298.1c0,0,0-0.1-0.1-0.1c-17.7-32-43.9-29.6-60.1-33.7c-5.7,4.2-12.8,12.8-22,8.1
		c-7.4,5.6-13.3,13-17,21.6c3.1,4.3,10.7,4,14.7-0.5c4.9-5.6,17.5-5.1,22,0.6s19,7,24,0.5s17.3-6,22.7,1
		C267.4,300.7,274.3,301.3,279,298.1z"/>
	<ellipse transform="matrix(0.9904 -0.1385 0.1385 0.9904 -42.1758 31.4949)" class="st2" cx="205.2" cy="318.8" rx="25" ry="28"/>
	
		<rect x="203.9" y="280" transform="matrix(0.7072 -0.7071 0.7071 0.7072 -139.4094 228.9135)" class="st3" width="5.5" height="5.5"/>
	
		<rect x="189.9" y="280" transform="matrix(0.7072 -0.7071 0.7071 0.7072 -143.5119 219.0166)" class="st3" width="5.5" height="5.5"/>
	
		<rect x="217.9" y="280" transform="matrix(0.707 -0.7072 0.7072 0.707 -135.3214 238.8673)" class="st3" width="5.5" height="5.5"/>
	
		<rect x="211.9" y="269.8" transform="matrix(0.7356 -0.6774 0.6774 0.7356 -127.8752 217.4661)" class="st4" width="5.5" height="5.5"/>
	
		<rect x="225.4" y="270" transform="matrix(0.7356 -0.6774 0.6774 0.7356 -124.4576 226.643)" class="st4" width="5.5" height="5.5"/>
	
		<rect x="197.9" y="269.8" transform="matrix(0.7356 -0.6774 0.6774 0.7356 -131.5783 207.9838)" class="st4" width="5.5" height="5.5"/>
	<path class="st5" d="M194.3,268.4c-13,3.7-14.3-2.3-11.3-3s11-5.3,15-9.3L194.3,268.4z"/>
	<path class="st5" d="M279.3,359c-5.7,21.7-28,42.3-53.3,48.3c-21.8,5.2-46-11.7-45.7-22c0.4-11.6,15-11,22.3,1.3
		c11.2,18.9,49.7,5.7,64-20.7L279.3,359z"/>
	<path class="st6" d="M196.9,272.3c-0.1,0.1-0.3,0.2-0.4,0.3c0.2-0.1,0.4-0.2,0.7-0.2C197,272.4,196.9,272.3,196.9,272.3"/>
	<path class="st0" d="M244.3,369.1c8.1,0.7,21.5-0.8,35-10.1c24.4-16.8,22-68.7,14.3-90.3s-23.7-36.3-45.7-37s-40.3,9-50,24.3
		c-6.5,10.3-1.7,16,1.3,17.3s15.7-3.7,19.3-10.3c8.7,5.3,18.3,3,26.7,0.3l16,4.7c-12.7-5-28.7-2-37,5.3s-2.7,12.7,3.7,13.3
		c6.3,0.7,18.7-5,28.3-3c9.7,2,12.6,5.5,23,14.9c0,0,5.7,22.7,0,31.4c-9.8-5.7-27.6,0.8-32.9,12.8L244.3,369.1z"/>
	<path d="M279.5,331.3c-0.1,0-0.3,0-0.4-0.1c-0.8-0.2-1.2-1.1-1-1.9c1.4-4.8,2.1-9.7,2.1-14.7c0-5.6-0.9-11.1-2.6-16.3
		c-0.3-0.8,0.2-1.6,0.9-1.9c0.8-0.3,1.6,0.2,1.9,1c1.8,5.5,2.8,11.3,2.8,17.2c0,5.3-0.8,10.5-2.3,15.6
		C280.7,330.9,280.1,331.3,279.5,331.3"/>
	<path d="M247,343.5c-0.2,0-0.4,0-0.7-0.2c-0.7-0.4-1.1-1.3-0.7-2c4-8.2,11.6-13.5,20.8-14.4c7.6-0.8,15.2,1.6,18.4,5.8
		c0.5,0.7,0.4,1.6-0.3,2.1c-0.7,0.5-1.6,0.4-2.1-0.3c-2.6-3.4-9.2-5.3-15.7-4.6c-4.8,0.5-13.5,2.8-18.4,12.7
		C248.1,343.2,247.6,343.5,247,343.5"/>
	<path d="M247.9,370.8c-1.5,0-2.8-0.1-3.7-0.2c-0.8-0.1-1.4-0.8-1.4-1.6c0.1-0.8,0.8-1.4,1.6-1.4c5.3,0.5,19.1,0.4,34-9.8
		c23.5-16.2,21.4-67,13.8-88.6c-7.9-22.3-24-35.4-44.3-36c-20.8-0.6-39,8.2-48.7,23.6c-2.7,4.2-3.6,8.1-2.7,11.1
		c0.7,2.2,2.2,3.6,3.3,4.1c1.9,0.8,13.9-3.3,17.4-9.7c0.2-0.4,0.5-0.6,0.9-0.7s0.8,0,1.2,0.2c8.2,5,17.4,2.7,25.4,0.2
		c0.8-0.3,1.6,0.2,1.9,1c0.3,0.8-0.2,1.6-1,1.9c-8.8,2.8-18.1,4.8-26.6,0.2c-4.7,6.6-16.7,11.3-20.4,9.7c-1.8-0.8-4-2.8-5-5.9
		c-0.8-2.7-1-7.3,3-13.6c10.3-16.3,29.5-25.7,51.3-25c21.6,0.7,38.7,14.5,47,38c3.6,10.2,6.5,28.8,4.9,47.6
		c-1.3,14.9-5.7,34.7-19.8,44.4C267.2,369.2,255,370.8,247.9,370.8"/>
	<path class="st5" d="M274,241c-6-0.5-1.3,4,0.7,5.7s16.3,14.7,29.7,10.7c13.3-4,17.3-15,14.7-15.7C316.3,241,286.3,242,274,241"/>
	<path d="M299,259.6L299,259.6c-5.3,0-13.8-2-25-11.5l-0.4-0.3c-4.9-4.1-4.2-6-4-6.6c0.4-1.2,1.6-1.8,3.5-1.8c0.3,0,0.6,0,1,0
		c5.2,0.4,13.7,0.5,19.6,0.5c3.2,0,6.5,0,9.5,0c2.7,0,5.2,0,7.4,0c6.4,0,8.1,0.1,8.8,0.3c1.2,0.3,1.9,1.3,1.9,2.8
		c0.1,3.6-4.8,12.3-16.5,15.8C302.9,259.4,301,259.6,299,259.6 M272.7,242.5c0.4,0.6,1.4,1.8,2.9,3l0.4,0.3
		c10.4,8.9,18.3,10.8,23,10.8l0,0c1.7,0,3.3-0.2,4.9-0.7c7.3-2.2,11.8-6.7,13.6-10.2c0.7-1.3,0.8-2.2,0.8-2.6
		c-1-0.1-3.6-0.2-7.7-0.2c-2.2,0-4.7,0-7.4,0c-3,0-6.3,0-9.5,0c-6,0-14.5-0.1-19.8-0.5C273.4,242.5,273,242.5,272.7,242.5"/>
	<path d="M187.1,271.1c-3.4,0-5.1-1-5.9-1.9c-0.9-0.9-1.2-2.1-0.9-3.2s1.2-1.9,2.4-2.1c2.6-0.6,10.3-5,14.3-8.9
		c0.6-0.6,1.5-0.6,2.1,0s0.6,1.5,0,2.1c-4.1,4.1-12.4,9-15.7,9.7c-0.1,0-0.2,0.1-0.2,0.1s0.1,0.2,0.4,0.4c0.6,0.4,3.2,1.6,10.4-0.4
		c0.8-0.2,1.6,0.2,1.9,1s-0.2,1.6-1,1.9C191.5,270.7,189,271.1,187.1,271.1"/>
	<path d="M216,254.4c-2.4,1.8-1.7,4,1,4.3s2.9,0.5,5.3-1.3c2.7-2,3-5.3,0-5S217.3,253.4,216,254.4"/>
	<path d="M209,255.7c0,1.7-1.3,3-3,3s-3-1.3-3-3c0-1.7,1.3-3,3-3C207.7,252.7,209,254,209,255.7"/>
	<path d="M243.7,247.4c0,1.7-1.3,3-3,3s-3-1.3-3-3s1.3-3,3-3S243.7,245.7,243.7,247.4"/>
	<path d="M217.7,409.8c-11.7,0-23.1-5-30.4-10.9c-5.5-4.5-8.6-9.5-8.5-13.6c0.2-4.9,2.6-8.4,6.8-9.5c5.3-1.4,13.3,1.7,18.3,10.1
		c4.1,6.9,11.6,8.3,17.1,8.2c16.5-0.3,35.5-12.7,44.3-28.8c0.4-0.7,1.3-1,2-0.6s1,1.3,0.6,2c-9.2,17-29.4,30-46.8,30.3
		c-9,0.1-16-3.2-19.8-9.6c-4.3-7.2-10.7-9.8-15-8.7c-2.8,0.7-4.5,3.1-4.6,6.7c-0.1,3.1,2.7,7.3,7.4,11.1c8.5,6.9,23,12.5,36.4,9.3
		c24.6-5.8,46.6-25.7,52.2-47.3c0.2-0.8,1-1.3,1.8-1.1c0.8,0.2,1.3,1,1.1,1.8c-5.9,22.6-28.8,43.3-54.4,49.4
		C223.5,409.5,220.6,409.8,217.7,409.8"/>
	<path d="M282.7,302.5c-0.4,0-0.7-0.1-1-0.4l-1.2-1.1c-9.7-8.8-15.6-14.1-24.4-15.9c-5.4-1.1-11.7,0.3-17.4,1.6
		c-4.3,0.9-8,1.8-10.8,1.5c-4.4-0.5-7.9-2.8-8.9-5.9c-0.7-2.2-0.5-5.7,4.4-10c9.2-8.1,26.1-10.5,38.5-5.6c0.8,0.3,1.1,1.2,0.8,1.9
		c-0.3,0.8-1.2,1.1-1.9,0.8c-11.5-4.5-27.1-2.3-35.5,5.1c-2.9,2.5-4.1,5-3.5,6.9c0.6,2,3.2,3.5,6.3,3.8c2.4,0.2,6-0.6,9.9-1.4
		c5.9-1.3,12.6-2.8,18.6-1.6c9.7,2,16.1,7.8,25.9,16.6l1.2,1.1c0.6,0.6,0.7,1.5,0.1,2.1C283.5,302.4,283.1,302.5,282.7,302.5"/>
	<path class="st0" d="M189.2,275.4c-3.4-1.1-11.3,5.1-10,10.4c1.4,5.3,7.4,4.8,11.1,0.6C194,282,192.5,276.4,189.2,275.4"/>
	<path d="M184.4,291.1L184.4,291.1c-3.3,0.2-5.8-1.7-6.7-5c-0.6-2.1,0-4.6,1.7-6.9c2.1-3,5.7-5.3,8.5-5.5c0.6,0,1.2,0,1.7,0.2
		c1.9,0.6,3.4,2.3,4,4.5c0.8,3,0,6.3-2.2,8.8C189.5,289.5,186.9,290.9,184.4,291.1 M188.1,276.7c-1.6,0.1-4.5,1.8-6.2,4.2
		c-0.7,0.9-1.7,2.7-1.2,4.4c0.6,2.4,2.3,2.8,3.6,2.7c1.7-0.1,3.5-1.1,4.9-2.8c1.6-1.8,2.2-4.1,1.6-6.1c-0.3-1.2-1.1-2.2-2-2.5
		C188.6,276.7,188.4,276.7,188.1,276.7"/>
	
		<rect x="176.9" y="240.7" transform="matrix(0.8385 -0.5449 0.5449 0.8385 -118.0266 141.0233)" class="st7" width="4" height="57.8"/>
	
		<rect x="176.9" y="240.7" transform="matrix(0.8385 -0.5449 0.5449 0.8385 -118.0266 141.0233)" class="st8" width="4" height="57.8"/>
	<g>
		<g>
			<g>
				<path id="SVGID_1_" class="st9" d="M169.7,231.2c-0.4-0.6-1.8-0.4-3.1,0.5s-2.1,2.1-1.7,2.7c0.4,0.6,2,3.1,2,3.1
					c0.2,0.3,0.6,0.4,1.2,0.3c0.2,0.3,0.5,0.8,0.7,1.1c-0.3,0.5-0.4,0.9-0.2,1.2c0.3,0.5,4.3,5.3,5.7,7.2c-0.3,0.5-0.4,0.9-0.2,1.2
					c0.4,0.6,1.3,2,1.3,2c0.2,0.3,0.6,0.4,1.2,0.3c0.3,0.4,0.8,1.2,1.1,1.7c-0.3,0.5-0.4,0.9-0.2,1.2c0.4,0.6,16.9,24.4,16.9,24.4
					s1,0.1,2-0.6c1.1-0.7,1.3-1.7,1.3-1.7s-15.3-25-15.5-25.3c-0.2-0.3-0.6-0.4-1.2-0.3c-0.3-0.5-0.9-1.3-1.1-1.7
					c0.3-0.5,0.4-0.9,0.2-1.2c0,0,0,0,0,0l0,0c0,0-1.1-1.7-1.2-1.9c-0.2-0.3-0.6-0.4-1.2-0.3c-1.2-2.1-4.2-7.9-4.4-8.1
					c-0.2-0.3-0.6-0.4-1.2-0.3c-0.2-0.4-0.5-0.8-0.7-1.1c0.3-0.5,0.4-0.9,0.2-1.2c0,0,0,0,0,0l0,0
					C171.7,234.3,169.9,231.5,169.7,231.2z"/>
			</g>
			<g>
				<defs>
					<path id="SVGID_3_" d="M168.4,230.1c-0.7-0.3-1.7,0.7-2.4,2.1c-0.6,1.5-0.6,2.9,0,3.2s3.4,1.5,3.4,1.5c0.3,0.1,0.8,0,1.2-0.4
						c0.4,0.2,0.8,0.4,1.2,0.5c0,0.6,0.2,1,0.5,1.1c0.6,0.3,6.5,2.1,8.8,2.9c0,0.6,0.2,1,0.5,1.1c0.7,0.3,2.1,1,2.1,1
						c0.3,0.1,0.8,0,1.2-0.4c0.4,0.2,1.3,0.6,1.8,0.8c0,0.6,0.2,1,0.5,1.1c0.7,0.3,27.5,11.2,27.5,11.2s0.9-0.5,1.4-1.6
						c0.5-1.2,0.2-2.1,0.2-2.1s-26.5-12.6-26.8-12.8c-0.3-0.1-0.8,0-1.2,0.4c-0.5-0.2-1.4-0.6-1.8-0.8c0-0.6-0.2-1-0.5-1.1
						c0,0,0,0-0.1,0l0,0c0,0-1.8-0.8-2.1-0.9c-0.3-0.1-0.7,0-1.2,0.4c-2.1-1.1-7.8-4.3-8.1-4.4c-0.3-0.1-0.8,0-1.2,0.4
						c-0.4-0.2-0.9-0.4-1.2-0.5c0-0.6-0.2-1-0.5-1.1c0,0,0,0-0.1,0l0,0C171.8,231.6,168.7,230.3,168.4,230.1z"/>
				</defs>
				<clipPath id="SVGID_4_">
					<use xlink:href="#SVGID_3_"  style="overflow:visible;"/>
				</clipPath>
				
					<ellipse transform="matrix(0.8379 -0.5458 0.5458 0.8379 -99.9381 129.0367)" class="st10" cx="167.3" cy="232.8" rx="2.9" ry="1.3"/>
			</g>
			<g>
				<path id="SVGID_2_" class="st11" d="M169.7,231.2c-0.4-0.6-1.8-0.4-3.1,0.5s-2.1,2.1-1.7,2.7c0.4,0.6,2,3.1,2,3.1
					c0.2,0.3,0.6,0.4,1.2,0.3c0.2,0.3,0.5,0.8,0.7,1.1c-0.3,0.5-0.4,0.9-0.2,1.2c0.3,0.5,4.3,5.3,5.7,7.2c-0.3,0.5-0.4,0.9-0.2,1.2
					c0.4,0.6,1.3,2,1.3,2c0.2,0.3,0.6,0.4,1.2,0.3c0.3,0.4,0.8,1.2,1.1,1.7c-0.3,0.5-0.4,0.9-0.2,1.2c0.4,0.6,16.9,24.4,16.9,24.4
					s1,0.1,2-0.6c1.1-0.7,1.3-1.7,1.3-1.7s-15.3-25-15.5-25.3c-0.2-0.3-0.6-0.4-1.2-0.3c-0.3-0.5-0.9-1.3-1.1-1.7
					c0.3-0.5,0.4-0.9,0.2-1.2c0,0,0,0,0,0l0,0c0,0-1.1-1.7-1.2-1.9c-0.2-0.3-0.6-0.4-1.2-0.3c-1.2-2.1-4.2-7.9-4.4-8.1
					c-0.2-0.3-0.6-0.4-1.2-0.3c-0.2-0.4-0.5-0.8-0.7-1.1c0.3-0.5,0.4-0.9,0.2-1.2c0,0,0,0,0,0l0,0
					C171.7,234.3,169.9,231.5,169.7,231.2z"/>
			</g>
		</g>
	</g>
</g>
<path class="st12" d="M231.2,312.2c-4.4-15.5-18.5-25.2-33.3-21.5c-15.5,3.9-21.6,20.8-17.9,35c3.4,12.8,16.3,24.6,32.8,21.4
	C226.4,344.5,235.6,327.5,231.2,312.2z M181.6,325.2c-1.5-5.5-1.3-11.3,0.5-16.6c0,0,2.5,9.5,4.8,15.7s8,17.7,8,17.7
	C188.2,338.5,183.4,332,181.6,325.2z M211.4,344.5c-4.6,0.9-8.9,0.6-12.8-0.8c0,0,0.4-5.5,1.7-13.3c0.6-3.8,1.6-9,1.6-9
	s2.3,5.5,5.4,11.7c2.8,5.5,6.1,10.1,6.1,10.1c0,0.1,0.2,0.5,0.3,0.6C213,344.1,212.2,344.4,211.4,344.5z M218.3,325.3l-2.2,10.3
	c0,0-4.8-9.8-7.6-17.2c-2.8-7.4-3.7-11.1-3.7-11.1c1.4-0.1,3.2-0.5,3.2-0.5c1.3-0.2,1.1-2.2-0.2-2.1c0,0-3.9,0.5-6.4,0.5
	c-2.4,0.1-6.3-0.1-6.3-0.1c-1.3,0-1.4,2.1-0.1,2.1c0,0,0.9,0.1,2.2,0.2l3.6,11c0,0-1,4.3-1.7,7.7c-0.7,3.3-1.5,9.6-1.5,9.6
	s-4.3-9-6.3-15.4s-3.6-12.9-3.6-12.9c1.5-0.1,2.6-0.1,2.6-0.1c1.3-0.2,1.1-2.1-0.2-2c0,0-3.1,0.1-5.7,0.2c-0.5,0-0.8-0.6-1.1-0.1
	l0.1-0.2c2.8-5.4,7.5-9.6,14.2-11.3c8.3-2.1,16.4,0.5,22.3,6.1c-0.1,0-0.2,0-0.3,0c-2.4,0.1-5.3,2.4-5.2,4.8c0,2.1,1.3,4.1,2.5,6.2
	c0.9,1.7,2.1,3.1,2.2,6.3C219.3,319.3,219,321.1,218.3,325.3z M217.7,342c0,0,1.5-10.3,2.9-15.8c1.3-5.5,2.2-8.1,2.2-8.1
	c1.5-4.1,2.3-5.8,2.2-8.5c0-0.9,0-2.6-0.2-3.8c1.3,2.2,2.4,4.7,3.2,7.3C231.2,324.3,226.3,336.5,217.7,342z"/>
<g id="legs">
	<path class="st0" d="M247,363.7c0,0-2,11.7-13,11.7s-6.3-13.3-7.7-22c-1.3-8.7-6.7-20,1.3-25.3s17.7,10.3,19.3,16.3
		C249.3,352.4,249,357.4,247,363.7"/>
	<path d="M234,377.4c-2.9,0-5.2-0.8-6.8-2.5c-3.1-3.2-2.9-8.5-2.7-13.7c0.1-2.6,0.2-5.3-0.2-7.5c-0.3-1.8-0.8-3.8-1.2-5.9
		c-1.9-7.7-4-16.5,3.4-21.4c1.4-0.9,3-1.4,4.6-1.4c8.7,0,16.3,13.7,17.8,18.9c2.6,8.8,2,14.2,0,20.3
		C248.1,368.8,243.9,377.4,234,377.4 M231.1,328.9c-0.8,0-1.6,0.2-2.4,0.8c-4.7,3.1-3.8,8.8-1.8,17.2c0.5,2.1,1,4.2,1.3,6.2
		c0.4,2.6,0.3,5.5,0.2,8.3c-0.1,4.3-0.3,8.8,1.6,10.8c0.8,0.8,2.1,1.3,3.9,1.3c9.1,0,11-9.6,11-10c0-0.1,0-0.2,0.1-0.3
		c1.8-5.6,2.3-10.2,0-18.2C243.6,339.6,236.5,328.9,231.1,328.9"/>
</g>
</svg>
