<?xml version="1.0" encoding="utf-8"?>
<!-- Generator: Adobe Illustrator 20.1.0, SVG Export Plug-In . SVG Version: 6.00 Build 0)  -->
<svg version="1.1" id="wapuu" xmlns="http://www.w3.org/2000/svg" xmlns:xlink="http://www.w3.org/1999/xlink" x="0px"
	 y="0px" viewBox="0 0 480 640" enable-background="new 0 0 480 640" xml:space="preserve">
<g id="wapuu-group">
	<path d="M217.6000061,412.7999878c-14.6999969,0-28.3999939-7.3999939-35.5-14.7000122
		c-4.1999969-4.2999878-6.3999939-8.7999878-6.1999969-12.8999939c0.1999969-7.6000061,5.3000031-12.7000122,12.5-12.7000122
		c6.8999939,0,13.8999939,4.5,18.1999969,11.8999939c3.3000031,5.5,9.3999939,6.7000122,14,6.7000122l0,0
		c10.8000031,0,25.5-6.6000061,35.7000122-18c-3.1999969,0.5-6,0.6000061-8.1999969,0.6000061c-0.3000031,0-0.6000061,0-0.8999939,0
		c-3.3000031,4-7.8000031,6.1000061-13.1000061,6.1000061c-3.5,0-9.1000061-1.1000061-11.1999969-8
		c-9.6999969-1-18.8000031-4.2999878-26.6999969-9.7999878c-0.1999969,0.7999878-0.6000061,1.6000061-1.1000061,2.3999939
		c-1.5,2.3999939-4.1000061,3.7000122-7.1999969,3.7000122c-1,0-2.1000061-0.1000061-3.1999969-0.3999939
		c-11.6000061-2.7999878-26-18.8999939-28-28.5c-1-4.7000122,0-9.1000061,2.6000061-12.3999939
		c2.3999939-3,6.1000061-4.7000122,10-4.7000122c0.8000031,0,1.6000061,0.1000061,2.3999939,0.2000122
		c-0.3000031-2.6000061-0.5-5.1000061-0.5-7.7000122c0-8.7999878,1.3999939-17.8999939,5.1999969-25.7999878
		c-0.6999969-0.7999878-1.5-4.6000061,0.3999939-8.5s4.8000031-5.8999939,6.6999969-6.7999878
		c-4.3000031-1.5-6.1000061-3.8999939-6.3000031-6.2000122c-0.3000031-3.1000061,1.6999969-5.7999878,4.8000031-6.5
		c1.8999939-0.3999939,8.8000031-4.2999878,12.5-7.8000031c10.8999939-16.8999939,31-26.6999969,53.5999908-26
		c10.5,0.3000031,19.8999939,3.5,28.1000061,9.5c5.1000061,0.3000031,12.2999878,0.3000031,17.5,0.3000031
		c3.2000122,0,6.3999939,0,9.3999939,0c2.7000122,0,5.2000122,0,7.3999939,0c6.7999878,0,8.5,0.1000061,9.6000061,0.3999939
		c2.5,0.6000061,4.1000061,2.8000031,4.2000122,5.6000061c0.1000061,5.3000031-5.7000122,14.8999939-18.7000122,18.7000122
		C303.5,262.1000366,301.3000183,262.4000244,299,262.4000244c-1,0-2-0.1000061-3-0.2000122
		c0.7000122,1.5,1.2999878,3.1000061,1.8999939,4.7000122c8.2000122,23.2999878,10.2000122,75.5-14.7000122,94.6000061
		c-6.7999878,23-30.1000061,43.7999878-56.1999969,50C224,412.5,220.8000031,412.7999878,217.6000061,412.7999878
		 M188.3000031,381.5c-1.3999939,0-3.3999939,0.3999939-3.5,4c0,1.2000122,0.8999939,3.5,3.6999969,6.3999939
		c5.6000061,5.7999878,17,11.8999939,29,11.8999939c2.6000061,0,5-0.2999878,7.3999939-0.7999878
		c18.8999939-4.5,36.6000061-18.1000061,45.3999939-33.8999939l-0.3999939,0.2000122
		c-10.2000122,17.6000061-31.1999969,30.7000122-49.5,30.7000122l0,0c-9.6999969,0-17.5-3.8999939-21.6999969-11.1000061
		C195.6999969,383.7999878,191.3000031,381.5,188.3000031,381.5 M226.5,363c0.6000061,0,1.1999969,0.1000061,1.6999969,0.2999878
		c1.6000061,0.6000061,2.6000061,2.1000061,2.8000031,3.7999878c0.3000031,3.7999878,1.1000061,3.7999878,3,3.7999878
		c3.1000061,0,5.3000031-1.2999878,7-4c0.8999939-1.5,2.5-2.2999878,4.1999969-2.2000122
		C246.0999908,364.7999573,247,364.7999573,248,364.7999573c4.3999939,0,11.2000122-0.7000122,19.1000061-4.1000061
		c2.2000122-0.8999939,4.7999878,0,5.7999878,2.2000122c0.1000061,0.2000122,0.2000122,0.2999878,0.2000122,0.5
		c0.7000122-1.7999878,1.2999878-3.6000061,1.7999878-5.3999939c0.2999878-1,0.8999939-2,1.7999878-2.6000061
		c21.2999878-14.7000122,20.2999878-63.5,12.6000061-85.1000061c-1.6000061-4.6000061-3.7000122-8.8999939-6-12.7000122
		c-1.1000061-1.6999969-0.8999939-3.8999939,0.5-5.3999939c1.2999878-1.5,3.5-1.8999939,5.2999878-1.1000061
		c3.6000061,1.6999969,6.8999939,2.6000061,9.8999939,2.6000061c1.3999939,0,2.7999878-0.1999969,4-0.6000061
		c5.7000122-1.6999969,9-4.6999969,10.7999878-7.1000061c-0.8999939,0-2,0-3.2999878,0c-2.2000122,0-4.7000122,0-7.2999878,0
		c-3,0-6.2000122,0-9.5,0c-5.7000122,0-14,0-19.3999939-0.3999939c-0.8999939-0.1000061-1.7000122-0.3999939-2.3999939-0.8999939
		c-6.8999939-5.3000031-15-8.1999969-24-8.3999939c-0.6999969,0-1.3000031,0-2,0
		c-18.8000031,0-35.3000031,8.3000031-44.1000061,22.2999878c-0.1999969,0.2999878-0.3999939,0.5-0.6000061,0.7999878
		c-1.1000061,1.1000061-2.6000061,2.2999878-4.1999969,3.5c1.1999969,0.7000122,2.1000061,1.8999939,2.3000031,3.3999939
		c0.1999969,2.1000061,1.6000061,3,1.8000031,3c2,1.1000061,2.8999939,3.6000061,1.8999939,5.7000122
		c-0.8999939,2.1000061-3.1999969,3.2000122-5.3999939,2.5l0,0c-1.6000061,1.2999878-3.8000031,1.3999939-5.3999939,0.2999878
		c-0.8999939,0.2000122-2.6999969,1.2999878-3.8999939,2.7000122c-0.6999969,0.8999939-0.8999939,1.5-0.8000031,1.7000122
		c0.1000061,0.2999878,0.1000061,0.3999939,0.1999969,0.5c1.3999939,1.5,1.6000061,3.7999878,0.3999939,5.5
		c-5.1999969,7.8999939-7.8999939,17.1000061-7.8999939,26.5c0,5.2000122,0.8000031,10.3999939,2.5,15.3999939
		c0.6999969,2.1000061-0.1999969,4.2999878-2.1000061,5.3999939c-1.8999939,1-4.3000031,0.6000061-5.6999969-1.1000061
		c-0.8000031-0.8999939-1.1999969-1.2999878-1.3000031-1.3999939c-1.5-1.1000061-3-1.7000122-4.3999939-1.7000122
		c-1.1999969,0-2.3000031,0.5-3,1.3999939c-0.8999939,1.1000061-1.1999969,2.8999939-0.8000031,4.8999939
		c1.3000031,6.3999939,13.6999969,19.7000122,21.3000031,21.5c0.3999939,0.1000061,0.6999969,0.1000061,0.8999939,0.2000122
		c0.1000061-1-0.1999969-2.7000122-0.6999969-4c-0.3000031-0.7000122-0.6999969-1.6000061-1.1999969-2.6000061
		c-1-2-0.3000031-4.3999939,1.5-5.7000122C189,345.6999207,191.5,345.9999084,193,347.6999207
		c8.5,9.2000122,20,14.7000122,32.3999939,15.5C225.8000031,363,226.1999969,363,226.5,363"/>
	<path fill="#FFD200" d="M176.3000031,329.3999939c-8.1000061-6.2999878-17.3000031-0.7000122-15.3000031,9
		c1.6000061,7.8999939,15.1000061,22.7000122,24.6999969,25c8.3000031,2,6.6000061-7,5.3000031-10
		C188.6999969,348,180.6999969,332.7000122,176.3000031,329.3999939"/>
	<circle cx="229.5" cy="314.3999939" r="58.5"/>
	<path d="M187.8000031,365.2000122L187.8000031,365.2000122c-0.8000031,0-1.6000061-0.1000061-2.5-0.2999878
		c-10.1000061-2.3999939-24-17.7000122-25.8000031-26.2000122c-0.8000031-3.7999878-0.1000061-7.2999878,2-9.8999939
		c1.8999939-2.2999878,4.6000061-3.6000061,7.6999969-3.6000061c2.6999969,0,5.5,1,8,3
		c4.8999939,3.7999878,13.3000031,20.5,15.1000061,24.6000061C193.1000061,354.5000305,194.5,359.7000122,192.5,362.9000244
		C191.8000031,363.8999939,190.5,365.2000122,187.8000031,365.2000122 M169.1999969,328.2000122
		c-2.1999969,0-4.1000061,0.8999939-5.3999939,2.5c-1.5,1.8999939-2,4.5-1.3999939,7.3999939
		c1.5,7.3999939,14.6999969,21.7000122,23.5,23.7999878c0.6999969,0.2000122,1.3000031,0.2000122,1.8000031,0.2000122
		c1.3999939,0,1.8999939-0.5,2.1999969-1c1.1000061-1.7000122,0.5-5.2999878-0.3999939-7.2000122
		c-2.5-5.6000061-10.3000031-20.3999939-14.1999969-23.3999939C173.3999939,329,171.3000031,328.2000122,169.1999969,328.2000122"/>
	<path d="M226.3000031,369.1000061L226.3000031,369.1000061C197,367.8000183,174.1000061,343.8999939,174.1000061,314.7000122
		c0-17.2999878,7.8999939-33.2000122,21.8000031-43.6000061c0.6999969-0.5,1.6000061-0.3999939,2.1000061,0.2999878
		c0.5,0.7000122,0.3999939,1.6000061-0.3000031,2.1000061c-13.1000061,9.7999878-20.6000061,24.8999939-20.6000061,41.2000122
		c0,27.6000061,21.6000061,50.2000122,49.1999969,51.3999939c0.8000031,0,1.5,0.7000122,1.3999939,1.6000061
		C227.8000031,368.5,227.1000061,369.1000061,226.3000031,369.1000061"/>
	<path fill="#EF9B2B" d="M226.3000031,367.6000061c-28.1999969-1.2000122-50.6999969-24.5-50.6999969-52.8999939
		c0-17.2999878,8.3000031-32.7000122,21.1999969-42.3999939c9.1000061,4.7000122,16.3000031-4,22-8.1000061
		c16.1999969,4.2000122,42.4000092,1.7000122,60.0999908,33.7000122c2.7000122,4.8999939,2.7000122,10.8999939,2.7000122,16.7999878
		c0,5.2999878-0.7999878,10.2999878-2.2000122,15.1000061c-13-4.7999878-28.5,1.2000122-33,12.8999939
		C237.6999969,358.2999878,226.3000031,367.6000061,226.3000031,367.6000061"/>
	<path fill="#683E15" d="M279,298.1000061c0,0,0-0.1000061-0.1000061-0.1000061
		C261.1999817,266,235,268.3999939,218.7999878,264.2999878c-5.6999969,4.2000122-12.8000031,12.7999878-22,8.1000061
		c-7.3999939,5.6000061-13.3000031,13-17,21.6000061c3.1000061,4.2999878,10.6999969,4,14.6999969-0.5
		c4.8999939-5.6000061,17.5-5.1000061,22,0.6000061s19,7,24,0.5s17.3000031-6,22.6999969,1
		C267.3999939,300.7000122,274.2999878,301.2999878,279,298.1000061z"/>
	
		<ellipse transform="matrix(0.9903632 -0.1384948 0.1384948 0.9903632 -42.1758232 31.4949112)" fill="#683E15" cx="205.224884" cy="318.8099976" rx="25.0009308" ry="28.0010414"/>
	
		<rect x="203.8958282" y="280.0055237" transform="matrix(0.7071568 -0.7070568 0.7070568 0.7071568 -139.4094543 228.9135284)" fill="#18890B" width="5.5003362" height="5.5003362"/>
	
		<rect x="189.8966217" y="280.0096436" transform="matrix(0.7071568 -0.7070568 0.7070568 0.7071568 -143.5119171 219.01651)" fill="#18890B" width="5.5003362" height="5.5003362"/>
	
		<rect x="217.8699799" y="279.9984131" transform="matrix(0.7070068 -0.7072068 0.7072068 0.7070068 -135.3214264 238.8672791)" fill="#18890B" width="5.4999475" height="5.4999475"/>
	
		<rect x="211.9010162" y="269.7997131" transform="matrix(0.735608 -0.6774074 0.6774074 0.735608 -127.8751755 217.4661102)" fill="#BF1919" width="5.4999399" height="5.4999399"/>
	
		<rect x="225.3660126" y="270.0100403" transform="matrix(0.735608 -0.6774074 0.6774074 0.735608 -124.4576111 226.6430054)" fill="#BF1919" width="5.4999399" height="5.4999399"/>
	
		<rect x="197.9020233" y="269.8024902" transform="matrix(0.735608 -0.6774074 0.6774074 0.735608 -131.5782928 207.9838257)" fill="#BF1919" width="5.4999399" height="5.4999399"/>
	<path fill="#FF8800" d="M194.3000031,268.3999939c-13,3.7000122-14.3000031-2.2999878-11.3000031-3s11-5.2999878,15-9.2999878
		L194.3000031,268.3999939z"/>
	<path fill="#FF8800" d="M279.2999878,359c-5.7000122,21.7000122-28,42.2999878-53.3000031,48.2999878
		c-21.8000031,5.2000122-46-11.7000122-45.6999969-22c0.3999939-11.6000061,15-11,22.3000031,1.2999878
		c11.1999969,18.8999939,49.6999969,5.7000122,63.9999847-20.7000122L279.2999878,359z"/>
	<path fill="#57A1BE" d="M196.8999939,272.2999878C196.7999878,272.3999939,196.5999908,272.5,196.5,272.5999756
		c0.1999969-0.1000061,0.3999939-0.2000122,0.6999969-0.2000122C197,272.3999939,196.8999939,272.2999878,196.8999939,272.2999878"
		/>
	<path fill="#FFD200" d="M244.3000031,369.1000061c8.1000061,0.7000122,21.4999847-0.7999878,34.9999847-10.1000061
		c24.3999939-16.7999878,22-68.7000122,14.2999878-90.2999878s-23.7000122-36.3000031-45.6999969-37s-40.3000031,9-50,24.2999878
		c-6.5,10.2999878-1.6999969,16,1.3000031,17.2999878S214.8999786,269.5999756,218.4999847,263
		c8.6999969,5.2999878,18.3000031,3,26.6999969,0.2999878l16,4.7000122c-12.6999969-5-28.6999969-2-37,5.2999878
		S221.4999847,286,227.8999786,286.5999756c6.3000031,0.7000122,18.6999969-5,28.3000031-3
		c9.7000122,2,12.6000061,5.5,23,14.8999939c0,0,5.7000122,22.7000122,0,31.3999939
		c-9.7999878-5.7000122-27.6000061,0.7999878-32.8999939,12.7999878L244.3000031,369.1000061z"/>
	<path d="M279.5,331.2999878c-0.1000061,0-0.2999878,0-0.3999939-0.1000061c-0.7999878-0.2000122-1.2000122-1.1000061-1-1.8999939
		C279.5,324.5,280.2000122,319.5999756,280.2000122,314.5999756c0-5.6000061-0.8999939-11.1000061-2.6000061-16.2999878
		C277.3000183,297.5,277.8000183,296.6999817,278.5,296.3999939c0.7999878-0.2999878,1.6000061,0.2000122,1.8999939,1
		c1.7999878,5.5,2.7999878,11.2999878,2.7999878,17.2000122c0,5.2999878-0.7999878,10.5-2.2999878,15.6000061
		C280.7000122,330.8999939,280.1000061,331.2999878,279.5,331.2999878"/>
	<path d="M247,343.5c-0.1999969,0-0.3999939,0-0.6999969-0.2000122c-0.6999969-0.3999939-1.1000061-1.2999878-0.6999969-2
		c4-8.2000122,11.6000061-13.5,20.7999878-14.3999939C274,326.1000061,281.6000061,328.5,284.7999878,332.6999817
		c0.5,0.7000122,0.3999939,1.6000061-0.2999878,2.1000061c-0.7000122,0.5-1.6000061,0.3999939-2.1000061-0.2999878
		c-2.6000061-3.3999939-9.2000122-5.2999878-15.7000122-4.6000061c-4.7999878,0.5-13.5,2.7999878-18.3999939,12.7000122
		C248.1000061,343.2000122,247.6000061,343.5,247,343.5"/>
	<path d="M247.8999939,370.7999878c-1.5,0-2.8000031-0.1000061-3.6999969-0.2000122
		c-0.8000031-0.1000061-1.3999939-0.7999878-1.3999939-1.6000061c0.1000061-0.7999878,0.8000031-1.3999939,1.6000061-1.3999939
		c5.3000031,0.5,19.0999908,0.3999939,34.0000153-9.7999878c23.5-16.2000122,21.3999939-67,13.7999878-88.6000061
		c-7.8999939-22.3000031-24-35.3999939-44.3000031-36c-20.8000031-0.6000061-39,8.1999969-48.6999969,23.6000061
		c-2.6999969,4.2000122-3.6000061,8.1000061-2.6999969,11.1000061C197.2000122,270.1000061,198.7000122,271.5,199.8000183,272
		c1.8999939,0.7999878,13.8999939-3.2999878,17.3999939-9.7000122c0.1999969-0.3999939,0.5-0.6000061,0.8999939-0.7000122
		s0.8000031,0,1.1999969,0.2000122C227.5,266.7999878,236.6999969,264.5,244.6999969,262
		c0.8000031-0.2999878,1.6000061,0.2000122,1.8999939,1c0.3000031,0.7999878-0.1999969,1.6000061-1,1.8999939
		c-8.8000031,2.7999878-18.1000061,4.7999878-26.6000061,0.2000122
		c-4.6999969,6.6000061-16.6999969,11.2999878-20.3999939,9.7000122c-1.8000031-0.7999878-4-2.7999878-5-5.8999939
		c-0.8000031-2.7000122-1-7.2999878,3-13.6000061c10.3000031-16.3000031,29.5-25.6999969,51.3000031-25
		c21.6000061,0.6999969,38.7000122,14.5,47,38c3.6000061,10.2000122,6.5,28.7999878,4.8999939,47.6000061
		C298.5,330.8000183,294.0999756,350.6000366,280,360.3000183C267.2000122,369.2000122,255,370.7999878,247.8999939,370.7999878"/>
	<path fill="#FF8800" d="M274,241c-6-0.5-1.2999878,4,0.7000122,5.6999969S291,261.3999939,304.4000244,257.3999939
		c13.2999878-4,17.2999878-15,14.7000122-15.6999969C316.2999878,241,286.2999878,242,274,241"/>
	<path d="M299,259.6000061L299,259.6000061c-5.2999878,0-13.7999878-2-25-11.5l-0.3999939-0.3000031
		c-4.8999939-4.1000061-4.2000122-6-4-6.6000061c0.3999939-1.1999969,1.6000061-1.8000031,3.5-1.8000031
		c0.2999878,0,0.6000061,0,1,0c5.2000122,0.3999939,13.7000122,0.5,19.6000061,0.5c3.2000122,0,6.5,0,9.5,0
		c2.7000122,0,5.2000122,0,7.3999939,0c6.3999939,0,8.1000061,0.1000061,8.7999878,0.3000031
		C320.6000061,240.5,321.2999878,241.5,321.2999878,243c0.1000061,3.6000061-4.7999878,12.3000031-16.5,15.7999878
		C302.8999939,259.3999939,301,259.6000061,299,259.6000061 M272.7000122,242.5
		c0.3999939,0.6000061,1.3999939,1.8000031,2.8999939,3L276,245.8000031c10.3999939,8.8999939,18.2999878,10.8000031,23,10.8000031
		l0,0c1.7000122,0,3.2999878-0.2000122,4.8999939-0.6999969c7.2999878-2.1999969,11.7999878-6.6999969,13.6000061-10.1999969
		c0.7000122-1.3000031,0.7999878-2.1999969,0.7999878-2.6000061c-1-0.1000061-3.6000061-0.1999969-7.7000122-0.1999969
		c-2.2000122,0-4.7000122,0-7.3999939,0c-3,0-6.2999878,0-9.5,0c-6,0-14.5-0.1000061-19.7999878-0.5
		C273.3999939,242.5,273,242.5,272.7000122,242.5"/>
	<path d="M187.1000061,271.1000061c-3.3999939,0-5.1000061-1-5.8999939-1.8999939
		c-0.8999939-0.8999939-1.1999969-2.1000061-0.8999939-3.2000122s1.1999969-1.8999939,2.3999939-2.1000061
		c2.6000061-0.6000061,10.3000031-5,14.3000031-8.8999939c0.6000061-0.6000061,1.5-0.6000061,2.1000061,0s0.6000061,1.5,0,2.1000061
		c-4.1000061,4.1000061-12.3999939,9-15.6999969,9.7000122c-0.1000061,0-0.1999969,0.1000061-0.1999969,0.1000061
		s0.1000061,0.2000122,0.3999939,0.3999939c0.6000061,0.3999939,3.1999969,1.6000061,10.3999939-0.3999939
		c0.8000031-0.2000122,1.6000061,0.2000122,1.8999939,1s-0.1999969,1.6000061-1,1.8999939
		C191.5,270.7000122,189,271.1000061,187.1000061,271.1000061"/>
	<path d="M216,254.3999939c-2.3999939,1.7999878-1.6999969,4,1,4.2999878s2.8999939,0.5,5.3000031-1.2999878
		c2.6999969-2,3-5.3000031,0-5S217.3000031,253.3999939,216,254.3999939"/>
	<path d="M209,255.6999969c0,1.6999969-1.3000031,3.0000153-3,3.0000153s-3-1.2999878-3-3s1.3000031-3,3-3
		C207.6999969,252.6999969,209,254,209,255.6999969"/>
	<path d="M243.6999969,247.3999939c0,1.6999969-1.3000031,3-3,3s-3-1.3000031-3-3s1.3000031-3,3-3
		S243.6999969,245.6999969,243.6999969,247.3999939"/>
	<path d="M217.6999969,409.7999878c-11.6999969,0-23.1000061-5-30.3999939-10.8999939c-5.5-4.5-8.6000061-9.5-8.5-13.6000061
		c0.1999969-4.8999939,2.6000061-8.3999939,6.8000031-9.5c5.3000031-1.3999939,13.3000031,1.7000122,18.3000031,10.1000061
		c4.1000061,6.8999939,11.6000061,8.2999878,17.1000061,8.2000122c16.5-0.2999878,35.4999847-12.7000122,44.3000031-28.7999878
		c0.3999939-0.7000122,1.2999878-1,2-0.6000061s1,1.2999878,0.6000061,2c-9.2000122,17-29.3999939,30-46.8000031,30.2999878
		c-9,0.1000061-16-3.2000122-19.8000031-9.6000061c-4.3000031-7.2000122-10.6999969-9.7999878-15-8.7000122
		c-2.8000031,0.7000122-4.5,3.1000061-4.6000061,6.7000122C181.6000061,388.5,184.4000092,392.6999817,189.1000061,396.5
		c8.5,6.8999939,23,12.5,36.3999939,9.2999878C250.1000061,400,272.1000061,380.0999756,277.7000122,358.5
		c0.2000122-0.7999878,1-1.2999878,1.7999878-1.1000061c0.7999878,0.2000122,1.2999878,1,1.1000061,1.7999878
		c-5.8999939,22.6000061-28.8000031,43.2999878-54.3999939,49.3999939C223.5,409.5,220.6000061,409.7999878,217.6999969,409.7999878
		"/>
	<path d="M282.7000122,302.5c-0.3999939,0-0.7000122-0.1000061-1-0.3999939L280.5,301
		c-9.7000122-8.7999878-15.6000061-14.1000061-24.3999939-15.8999939
		c-5.3999939-1.1000061-11.6999969,0.2999878-17.3999939,1.6000061c-4.3000031,0.8999939-8,1.7999878-10.8000031,1.5
		c-4.3999939-0.5-7.8999939-2.7999878-8.8999939-5.8999939c-0.6999969-2.2000122-0.5-5.7000122,4.3999939-10
		c9.1999969-8.1000061,26.1000061-10.5,38.5000153-5.6000061c0.7999878,0.2999878,1.1000061,1.2000122,0.7999878,1.8999939
		c-0.2999878,0.7999878-1.2000122,1.1000061-1.8999939,0.7999878c-11.5-4.5-27.1000061-2.2999878-35.5,5.1000061
		c-2.8999939,2.5-4.1000061,5-3.5,6.8999939c0.6000061,2,3.1999969,3.5,6.3000031,3.7999878
		c2.3999939,0.2000122,6-0.6000061,9.8999939-1.3999939C243.9000092,282.5,250.6000214,281,256.6000061,282.1999817
		c9.7000122,2,16.1000061,7.7999878,25.8999939,16.6000061l1.2000122,1.1000061
		c0.6000061,0.6000061,0.7000122,1.5,0.1000061,2.1000061C283.5,302.3999939,283.1000061,302.5,282.7000122,302.5"/>
	<path fill="#FFD200" d="M189.1999969,275.3999939c-3.3999939-1.1000061-11.3000031,5.1000061-10,10.3999939
		c1.3999939,5.2999878,7.3999939,4.7999878,11.1000061,0.6000061C194,282,192.5,276.3999939,189.1999969,275.3999939"/>
	<path d="M184.3999939,291.1000061L184.3999939,291.1000061c-3.3000031,0.2000122-5.8000031-1.7000122-6.6999969-5
		c-0.6000061-2.1000061,0-4.6000061,1.6999969-6.8999939c2.1000061-3,5.6999969-5.2999878,8.5-5.5
		c0.6000061,0,1.1999969,0,1.6999969,0.2000122c1.8999939,0.6000061,3.3999939,2.2999878,4,4.5
		c0.8000031,3,0,6.2999878-2.1999969,8.7999878C189.5,289.5,186.8999939,290.8999939,184.3999939,291.1000061
		 M188.1000061,276.7000122c-1.6000061,0.1000061-4.5,1.7999878-6.1999969,4.2000122
		c-0.6999969,0.8999939-1.6999969,2.7000122-1.1999969,4.3999939c0.6000061,2.3999939,2.3000031,2.7999878,3.6000061,2.7000122
		c1.6999969-0.1000061,3.5-1.1000061,4.8999939-2.7999878c1.6000061-1.7999878,2.1999969-4.1000061,1.6000061-6.1000061
		c-0.3000031-1.2000122-1.1000061-2.2000122-2-2.5C188.6000061,276.7000122,188.3999939,276.7000122,188.1000061,276.7000122"/>
	
		<rect x="176.8938904" y="240.7233124" transform="matrix(0.8385007 -0.5449005 0.5449005 0.8385007 -118.0266266 141.0233307)" display="none" fill="#C9A063" width="3.9999967" height="57.7999535"/>
	
		<rect x="176.8938904" y="240.7233124" transform="matrix(0.8385007 -0.5449005 0.5449005 0.8385007 -118.0266266 141.0233307)" display="none" fill="none" stroke="#000000" stroke-miterlimit="10" width="3.9999967" height="57.7999535"/>
	<g>
		<path fill="#C9A063" stroke="#000000" stroke-width="2" d="M180.6000061,257L180.6000061,257l15.3000031,23.7999878l0,0
			c0.3999939,0.6000061,1.6999969,0.2999878,3-0.5s2-1.8999939,1.6999969-2.5l0,0L185.3000031,254l0,0
			c-0.3999939-0.6000061-1.6999969-0.3000031-3,0.5S180.3000031,256.3999939,180.6000061,257z"/>
		<path fill="#C9A063" stroke="#000000" stroke-width="2" stroke-linecap="round" stroke-linejoin="round" d="
			M183.3000031,250.8999939c0,0-6.3000031-8.8999939-8.6999969-11.6000061l-3,1.8999939c1.5,3.1999969,7,12.6999969,7,12.6999969
			s1.1999969,0.3999939,2.1999969,2c0.3000031,0.4000092,1.1999969,0.1999969,2.1000061-0.3999939
			c0.8999939-0.6000061,1.3999939-1.3999939,1.1999969-1.8000031
			C183.1999969,252.1999969,183.3000031,250.8999939,183.3000031,250.8999939z"/>
		<polygon fill="#BA8C46" points="172.3999939,235.8000031 173.8000031,236.8999939 169.8000031,239.5 169.3000031,237.6999969 		
			"/>
		<path fill="#C9A063" d="M175.6999969,239.1000061L175.6999969,239.1000061L174,236.5c0,0-1.1999969,0.1000061-1.8999939-0.8999939
			c-0.6000061-1,0-2,0-2l-4.3000031-6.6999969l0,0c-0.3999939-0.6000061-1.6999969-0.3000031-3,0.5s-2,1.8999939-1.6999969,2.5
			l4.3000031,6.6999969c0,0,1.1999969-0.1999969,1.8000031,0.8000031s0,2.1000061,0,2.1000061l1.6999969,2.6000061l0,0
			c0.3999939,0.6000061,1.6999969,0.3000031,3-0.5C175.3000031,240.6999969,176,239.6000061,175.6999969,239.1000061z"/>
		
			<ellipse transform="matrix(0.8408502 -0.5412679 0.5412679 0.8408502 -97.2272949 125.9139786)" fill="#A67936" cx="165.5028381" cy="228.2918243" rx="2.800169" ry="1.200068"/>
		<path fill="none" stroke="#000000" stroke-width="2" stroke-linecap="round" stroke-linejoin="round" d="M175.6999969,239.1000061
			L175.6999969,239.1000061L174,236.5c0,0-1.1999969,0.1000061-1.8999939-0.8999939c-0.6000061-1,0-2,0-2l-4.3000031-6.6999969l0,0
			c-0.3999939-0.6000061-1.6999969-0.3000031-3,0.5s-2,1.8999939-1.6999969,2.5l4.3000031,6.6999969
			c0,0,1.1999969-0.1999969,1.8000031,0.8000031s0,2.1000061,0,2.1000061l1.6999969,2.6000061l0,0
			c0.3999939,0.6000061,1.6999969,0.3000031,3-0.5C175.3000031,240.6999969,176,239.6000061,175.6999969,239.1000061z"/>
	</g>
</g>
<path fill="#FFFFFF" d="M231.1999969,312.2000122c-4.3999939-15.5-18.5-25.2000122-33.3000031-21.5
	c-15.5,3.8999939-21.6000061,20.7999878-17.8999939,35c3.3999939,12.7999878,16.3000031,24.6000061,32.8000031,21.3999939
	C226.3999939,344.5,235.6000061,327.5,231.1999969,312.2000122z M181.6000061,325.2000122
	c-1.5-5.5-1.3000031-11.2999878,0.5-16.6000061c0,0,2.5,9.5,4.8000031,15.7000122s8,17.7000122,8,17.7000122
	C188.1999969,338.5,183.3999939,332,181.6000061,325.2000122z M211.3999939,344.5
	c-4.6000061,0.8999939-8.8999939,0.6000061-12.8000031-0.7999878c0,0,0.3999939-5.5,1.6999969-13.2999878
	c0.6000061-3.7999878,1.6000061-9,1.6000061-9s2.3000031,5.5,5.3999939,11.7000122
	c2.8000031,5.5,6.1000061,10.1000061,6.1000061,10.1000061c0,0.1000061,0.1999969,0.5,0.3000031,0.6000061
	C213,344.1000061,212.1999969,344.3999939,211.3999939,344.5z M218.3000031,325.2999878l-2.1999969,10.2999878
	c0,0-4.8000031-9.7999878-7.6000061-17.2000122c-2.8000031-7.3999939-3.6999969-11.1000061-3.6999969-11.1000061
	c1.3999939-0.1000061,3.1999969-0.5,3.1999969-0.5c1.3000031-0.2000122,1.1000061-2.2000122-0.1999969-2.1000061
	c0,0-3.8999939,0.5-6.3999939,0.5c-2.3999939,0.1000061-6.3000031-0.1000061-6.3000031-0.1000061
	c-1.3000031,0-1.3999939,2.1000061-0.1000061,2.1000061c0,0,0.8999939,0.1000061,2.1999969,0.2000122l3.6000061,11
	c0,0-1,4.2999878-1.6999969,7.7000122c-0.6999969,3.2999878-1.5,9.6000061-1.5,9.6000061s-4.3000031-9-6.3000031-15.3999939
	s-3.6000061-12.8999939-3.6000061-12.8999939c1.5-0.1000061,2.6000061-0.1000061,2.6000061-0.1000061
	c1.3000031-0.2000122,1.1000061-2.1000061-0.1999969-2c0,0-3.1000061,0.1000061-5.6999969,0.2000122
	c-0.5,0-0.8000031-0.6000061-1.1000061-0.1000061l0.1000061-0.2000122c2.8000031-5.3999939,7.5-9.6000061,14.1999969-11.2999878
	c8.3000031-2.1000061,16.3999939,0.5,22.3000031,6.1000061c-0.1000061,0-0.1999969,0-0.3000031,0
	c-2.3999939,0.1000061-5.3000031,2.3999939-5.1999969,4.7999878c0,2.1000061,1.3000031,4.1000061,2.5,6.2000122
	c0.8999939,1.7000122,2.1000061,3.1000061,2.1999969,6.2999878C219.3000031,319.2999878,219,321.1000061,218.3000031,325.2999878z
	 M217.6999969,342c0,0,1.5-10.2999878,2.8999939-15.7999878c1.3000031-5.5,2.1999969-8.1000061,2.1999969-8.1000061
	c1.5-4.1000061,2.3000031-5.7999878,2.1999969-8.5c0-0.8999939,0-2.6000061-0.1999969-3.7999878
	c1.3000031,2.2000122,2.3999939,4.7000122,3.1999969,7.2999878C231.1999969,324.2999878,226.3000031,336.5,217.6999969,342z"/>
<g id="legs">
	<path fill="#FFD200" d="M247,363.7000122c0,0-2,11.7000122-13,11.7000122s-6.3000031-13.2999878-7.6999969-22
		c-1.3000031-8.7000122-6.6999969-20,1.3000031-25.2999878s17.6999969,10.2999878,19.3000031,16.2999878
		C249.3000031,352.3999939,249,357.3999939,247,363.7000122"/>
	<path d="M234,377.3999939c-2.8999939,0-5.1999969-0.7999878-6.8000031-2.5
		c-3.1000061-3.2000122-2.8999939-8.5-2.6999969-13.7000122c0.1000061-2.6000061,0.1999969-5.2999878-0.1999969-7.5
		C224,351.8999939,223.5,349.8999939,223.1000061,347.7999878c-1.8999939-7.7000122-4-16.5,3.3999939-21.3999939
		C227.8999939,325.5,229.5,325,231.1000061,325c8.6999969,0,16.3000031,13.7000122,17.8000031,18.8999939
		c2.6000061,8.7999878,2,14.2000122,0,20.2999878C248.1000061,368.7999878,243.8999939,377.3999939,234,377.3999939
		 M231.1000061,328.8999939c-0.8000031,0-1.6000061,0.2000122-2.3999939,0.7999878
		c-4.6999969,3.1000061-3.8000031,8.7999878-1.8000031,17.2000122c0.5,2.1000061,1,4.2000122,1.3000031,6.2000122
		c0.3999939,2.6000061,0.3000031,5.5,0.1999969,8.2999878c-0.1000061,4.2999878-0.3000031,8.7999878,1.6000061,10.7999878
		c0.8000031,0.7999878,2.1000061,1.2999878,3.8999939,1.2999878c9.1000061,0,11-9.6000061,11-10
		c0-0.1000061,0-0.2000122,0.1000061-0.2999878c1.8000031-5.6000061,2.3000031-10.2000122,0-18.2000122
		C243.6000061,339.6000061,236.5,328.8999939,231.1000061,328.8999939"/>
</g>
</svg>
